<?xml version="1.0" standalone="yes"?>

<svg version="1.1" viewBox="0.0 0.0 440.0 280.0" fill="none" stroke="none" stroke-linecap="square" stroke-miterlimit="10" xmlns="http://www.w3.org/2000/svg" xmlns:xlink="http://www.w3.org/1999/xlink"><clipPath id="p.0"><path d="m0 0l440.0 0l0 280.0l-440.0 0l0 -280.0z" clip-rule="nonzero"></path></clipPath><g clip-path="url(#p.0)"><path fill="#5892dc" d="m0 0l440.0 0l0 280.0l-440.0 0z" fill-rule="evenodd"></path><path fill="#efefef" d="m152.26752 141.09146l0 0c0 -31.710716 -25.70662 -57.417328 -57.417328 -57.417328l0 0c-15.22802 0 -29.832344 6.049309 -40.600178 16.817146c-10.767838 10.767838 -16.817146 25.372162 -16.817146 40.60018l0 0c0 31.710709 25.706612 57.417328 57.417324 57.417328l0 0c31.710709 0 57.417328 -25.70662 57.417328 -57.417328z" fill-rule="evenodd"></path><path fill="#434343" d="m94.80933 81.41451l0 0c32.94924 0 59.672264 26.687187 59.716484 59.63639c0.04421997 32.94922 -26.607086 59.70804 -59.556206 59.796463l-0.026031494 -9.700317c27.596863 -0.07406616 49.918922 -22.486176 49.88189 -50.083115c-0.03703308 -27.596947 -22.419174 -49.949066 -50.016136 -49.949066z" fill-rule="evenodd"></path><path fill="#434343" d="m95.19199 81.40406l0 0c-21.639183 -0.14232635 -41.66209 11.43335 -52.33666 30.256958c-10.674564 18.8236 -10.330208 41.949226 0.9000931 60.446663c11.230305 18.497421 31.588993 29.471786 53.21435 28.685211l-0.35258484 -9.693649c-18.112534 0.6587982 -35.164158 -8.532898 -44.57021 -24.025604c-9.406055 -15.492706 -9.694473 -34.8618 -0.75388336 -50.6277c8.94059 -15.7659 25.710972 -25.46122 43.835094 -25.34201z" fill-rule="evenodd"></path><path fill="#434343" d="m100.05873 114.724174l0 0c0 -2.9136276 -2.3619614 -5.275589 -5.275589 -5.275589l0 0l0 0c-1.3991776 0 -2.741043 0.5558243 -3.7304077 1.5451889c-0.9893646 0.9893646 -1.5451813 2.3312302 -1.5451813 3.7304l0 32.22048c0 2.91362 2.3619614 5.275589 5.275589 5.275589l0 0l0 0c2.9136276 0 5.275589 -2.361969 5.275589 -5.275589z" fill-rule="evenodd"></path><path fill="#434343" d="m100.032524 74.67408l0 0c0 -2.9039764 -2.3541336 -5.25811 -5.25811 -5.25811l0 0l0 0c-1.3945312 0 -2.7319565 0.55397797 -3.7180405 1.540062c-0.9860916 0.986084 -1.5400696 2.3235092 -1.5400696 3.718048l0 20.302986c0 2.9039764 2.3541412 5.25811 5.25811 5.25811l0 0l0 0c2.9039764 0 5.25811 -2.3541336 5.25811 -5.25811z" fill-rule="evenodd"></path><path fill="#434343" d="m100.032524 187.27515l0 0c0 -2.9039764 -2.3541336 -5.2581177 -5.25811 -5.2581177l0 0l0 0c-1.3945312 0 -2.7319565 0.5539856 -3.7180405 1.5400696c-0.9860916 0.986084 -1.5400696 2.3235016 -1.5400696 3.718048l0 20.302979c0 2.9039764 2.3541412 5.2581177 5.25811 5.2581177l0 0l0 0c2.9039764 0 5.25811 -2.3541412 5.25811 -5.2581177z" fill-rule="evenodd"></path><path fill="#434343" d="m161.22644 146.37915l0 0c2.9039764 0 5.2581177 -2.3541412 5.2581177 -5.2581177l0 0l0 0c0 -1.3945312 -0.5539856 -2.7319489 -1.5400696 -3.7180328c-0.986084 -0.98609924 -2.3235016 -1.5400696 -3.718048 -1.5400696l-20.302994 0c-2.9039612 0 -5.2581024 2.3541412 -5.2581024 5.2581024l0 0l0 0c0 2.9039764 2.3541412 5.2581177 5.2581024 5.2581177z" fill-rule="evenodd"></path><path fill="#434343" d="m48.62538 146.37915l0 0c2.9039764 0 5.25811 -2.3541412 5.25811 -5.2581177l0 0l0 0c0 -1.3945312 -0.55397797 -2.7319489 -1.5400658 -3.7180328c-0.986084 -0.98609924 -2.3235054 -1.5400696 -3.7180443 -1.5400696l-20.302992 0c-2.9039745 0 -5.25811 2.3541412 -5.25811 5.2581024l0 0l0 0c0 2.9039764 2.3541355 5.2581177 5.25811 5.2581177z" fill-rule="evenodd"></path><path fill="#434343" d="m121.525665 127.46382l0 0c2.0525894 -2.0525894 2.0525894 -5.3804855 0 -7.4330673l0 0l0 0c-0.98568726 -0.98568726 -2.3225632 -1.539444 -3.7165298 -1.539444c-1.3939743 0 -2.7308502 0.5537567 -3.7165375 1.539444l-22.803154 22.803139c-2.0525818 2.052597 -2.0525818 5.380493 0 7.433075l0 0l0 0c2.0525894 2.0525818 5.3804855 2.0525818 7.433075 0z" fill-rule="evenodd"></path><path fill="#434343" d="m191.8078 87.62707c-1.906723 0 -3.7027435 0.36714172 -5.388077 1.1014404c-1.6781921 0.7270279 -3.1457062 1.7303162 -4.4025726 3.00988c-1.2497101 1.2723007 -2.235199 2.7663345 -2.9564667 4.4821167c-0.7141266 1.7085037 -1.0711823 3.5333405 -1.0711823 5.474495l0 33.50132l9.2229 0l0 -33.50132c0 -0.65431976 0.11782837 -1.2650223 0.35350037 -1.8320999c0.23565674 -0.56708527 0.5605774 -1.0614624 0.9747772 -1.4831314c0.42132568 -0.42894745 0.9105072 -0.76338196 1.467514 -1.0032959c0.5570221 -0.23992157 1.1568909 -0.35987854 1.7996063 -0.35987854c0.6427002 0 1.242569 0.11995697 1.7995911 0.35987854c0.55700684 0.23991394 1.0426178 0.57434845 1.4568024 1.0032959c0.42134094 0.421669 0.74983215 0.91604614 0.9854889 1.4831314c0.235672 0.56707764 0.35350037 1.1777802 0.35350037 1.8320999l0 33.50132l9.2229 0l0 -33.50132c0 -0.65431976 0.11784363 -1.2650223 0.35350037 -1.8320999c0.23565674 -0.56708527 0.56059265 -1.0614624 0.9747772 -1.4831314c0.42134094 -0.42894745 0.9105072 -0.76338196 1.4675293 -1.0032959c0.55700684 -0.23992157 1.1568756 -0.35987854 1.7995911 -0.35987854c0.6427002 0 1.242569 0.11995697 1.7995911 0.35987854c0.55700684 0.23991394 1.0426178 0.57434845 1.4568024 1.0032959c0.42134094 0.421669 0.7534027 0.91604614 0.9962158 1.4831314c0.24993896 0.56707764 0.37490845 1.1777802 0.37490845 1.8320999l0 33.50132l9.190765 0l0 -33.50132c0 -1.9411545 -0.36062622 -3.7659912 -1.0818939 -5.474495c-0.7141113 -1.7157822 -1.6996155 -3.209816 -2.9564667 -4.4821167c-1.2497101 -1.2795639 -2.7172394 -2.2828522 -4.4025726 -3.00988c-1.6781921 -0.7342987 -3.470642 -1.1014404 -5.37735 -1.1014404c-1.7138977 0 -3.3599548 0.31261444 -4.9381714 0.9378586c-1.5710754 0.6179733 -2.9886017 1.5158463 -4.2526093 2.6936264c-1.2639923 -1.1777802 -2.688675 -2.075653 -4.2740326 -2.6936264c-1.5853577 -0.62524414 -3.23497 -0.9378586 -4.948868 -0.9378586z" fill-rule="evenodd"></path><path fill="#434343" d="m235.76926 84.68262c-0.8141022 0 -1.5817871 0.15994263 -2.3030548 0.4798355c-0.7141113 0.31261444 -1.3354034 0.7379303 -1.8638611 1.2759247c-0.52130127 0.5307312 -0.93907166 1.1632385 -1.2532806 1.8975372c-0.30708313 0.7270279 -0.46061707 1.4940338 -0.46061707 2.301033c0 0.82881165 0.15353394 1.6030884 0.46061707 2.3228455c0.31420898 0.7197571 0.73197937 1.3486328 1.2532806 1.8866272c0.52845764 0.5307312 1.1497498 0.9560394 1.8638611 1.2759323c0.7212677 0.31262207 1.4889526 0.4689331 2.3030548 0.4689331c0.8141022 0 1.5782166 -0.15631104 2.2923431 -0.4689331c0.72125244 -0.31989288 1.3496857 -0.7452011 1.8852844 -1.2759323c0.5355835 -0.5379944 0.95692444 -1.1668701 1.2639923 -1.8866272c0.31422424 -0.7197571 0.47132874 -1.4940338 0.47132874 -2.3228455c0 -0.8069992 -0.15710449 -1.5740051 -0.47132874 -2.301033c-0.30706787 -0.7342987 -0.7284088 -1.366806 -1.2639923 -1.8975372c-0.53559875 -0.5379944 -1.164032 -0.96331024 -1.8852844 -1.2759247c-0.7141266 -0.31989288 -1.478241 -0.4798355 -2.2923431 -0.4798355zm-4.4347076 15.474724l0 35.03898l8.83728 0l0 -35.03898z" fill-rule="evenodd"></path><path fill="#434343" d="m262.53818 107.845634c1.1997375 0 2.328064 0.2689972 3.3849487 0.8069916c1.0640564 0.5307312 1.9924011 1.2395782 2.7850952 2.1265488c0.7926636 0.87970734 1.4175415 1.8939056 1.8745728 3.0426025c0.46417236 1.1414261 0.69625854 2.3228455 0.69625854 3.5442505c0 1.2213974 -0.23208618 2.4064484 -0.69625854 3.5551453c-0.45703125 1.1414337 -1.0819092 2.155632 -1.8745728 3.0426025c-0.7926941 0.8796997 -1.7210388 1.5885468 -2.7850952 2.1265488c-1.0568848 0.5307236 -2.1852112 0.7960892 -3.3849487 0.7960892c-1.199707 0 -2.331604 -0.25082397 -3.3956604 -0.7524643c-1.0568848 -0.50164795 -1.9781189 -1.1886902 -2.7636414 -2.061119c-0.7783966 -0.8724289 -1.3925476 -1.8866272 -1.842453 -3.0426025c-0.44989014 -1.1559677 -0.6748352 -2.3773727 -0.6748352 -3.6641998c0 -1.4831314 0.22494507 -2.813591 0.6748352 -3.9913712c0.4499054 -1.1777802 1.0640564 -2.1738052 1.842453 -2.9880753c0.78552246 -0.8215332 1.7067566 -1.4504089 2.7636414 -1.8866272c1.0640564 -0.43621826 2.1959534 -0.65431976 3.3956604 -0.65431976zm8.740875 -21.625366l0 16.35807c-0.47131348 -0.69794464 -1.0497437 -1.2868347 -1.735321 -1.7666779c-0.6855469 -0.4798355 -1.4211121 -0.8651581 -2.2066345 -1.1559677c-0.77838135 -0.29808044 -1.5817871 -0.51255035 -2.4101562 -0.64341736c-0.82125854 -0.13085938 -1.6174927 -0.19629669 -2.3887634 -0.19629669c-2.420868 0 -4.6989136 0.4689331 -6.834152 1.4067917c-2.1280975 0.9378662 -3.9919586 2.2356033 -5.5915985 3.893219c-1.5924988 1.6576233 -2.84935 3.6205902 -3.7705688 5.8889084c-0.9212189 2.2683182 -1.3818359 4.722023 -1.3818359 7.3611298c0 2.6609116 0.46061707 5.121887 1.3818359 7.3829346c0.9212189 2.2537766 2.17807 4.205841 3.7705688 5.856186c1.5996399 1.6430817 3.463501 2.9299164 5.5915985 3.8605042c2.1352386 0.9233246 4.4132843 1.3849792 6.834152 1.3849792c1.1140442 0 2.2102356 -0.14176941 3.2885437 -0.42530823c1.0854797 -0.28353882 2.1423645 -0.668869 3.1707153 -1.1559601c1.0283508 -0.49438477 2.0066833 -1.0723724 2.9350586 -1.733963c0.93548584 -0.668869 1.8210144 -1.3849792 2.6565247 -2.1483612l3.406372 4.8092804l2.1209412 0l0 -48.97605z" fill-rule="evenodd"></path><path fill="#434343" d="m286.4792 100.22277l0 22.3124c0 1.8320999 0.34277344 3.5624237 1.0283508 5.190956c0.6855469 1.6212692 1.6210632 3.0317001 2.806488 4.231285c1.1925964 1.1996002 2.5815735 2.1483612 4.166931 2.8463135c1.5853271 0.697937 3.2885132 1.0469055 5.109558 1.0469055c1.6495972 0 3.217102 -0.2871704 4.702484 -0.8615265c1.4925232 -0.58161926 2.8386536 -1.4286041 4.038391 -2.5409393c1.2211304 1.1123352 2.581543 1.9593201 4.0812073 2.5409393c1.4996643 0.5743561 3.0635986 0.8615265 4.691803 0.8615265c1.8210144 0 3.527771 -0.3489685 5.1202393 -1.0469055c1.5996399 -0.6979523 2.9921875 -1.6467133 4.177643 -2.8463135c1.1925964 -1.199585 2.1316528 -2.6100159 2.8171997 -4.231285c0.6855774 -1.6285324 1.0283508 -3.3588562 1.0283508 -5.190956l0 -22.3124l-8.740875 0l0 22.3124c0 0.6107025 -0.11782837 1.185051 -0.3534851 1.723053c-0.23565674 0.5307236 -0.5534363 0.9996567 -0.95336914 1.4067917c-0.39276123 0.3998642 -0.8569336 0.71611786 -1.3925171 0.9487686c-0.535614 0.22537231 -1.1033325 0.3380661 -1.703186 0.3380661c-0.59988403 0 -1.164032 -0.11269379 -1.6924744 -0.3380661c-0.5213318 -0.23265076 -0.9819336 -0.5489044 -1.3818359 -0.9487686c-0.39276123 -0.407135 -0.70700073 -0.8760681 -0.9426575 -1.4067917c-0.23565674 -0.538002 -0.3534851 -1.1123505 -0.3534851 -1.723053l0 -22.3124l-8.740875 0l0 22.3124c0 0.6107025 -0.11425781 1.185051 -0.34277344 1.723053c-0.22137451 0.5307236 -0.5355835 0.9996567 -0.9426575 1.4067917c-0.40704346 0.3998642 -0.87835693 0.71611786 -1.413971 0.9487686c-0.5355835 0.22537231 -1.103302 0.3380661 -1.7031555 0.3380661c-0.59988403 0 -1.164032 -0.11269379 -1.6924744 -0.3380661c-0.5213318 -0.23265076 -0.9819336 -0.5489044 -1.3818359 -0.9487686c-0.39276123 -0.407135 -0.7034302 -0.8760681 -0.9319458 -1.4067917c-0.22137451 -0.538002 -0.33206177 -1.1123505 -0.33206177 -1.723053l0 -22.3124z" fill-rule="evenodd"></path><path fill="#434343" d="m352.35712 107.845634c1.199707 0 2.3280334 0.2689972 3.3849487 0.8069916c1.0640259 0.5307312 1.9924011 1.2395782 2.7850647 2.1265488c0.7926941 0.87970734 1.4175415 1.8939056 1.8745728 3.0426025c0.46420288 1.1414261 0.69628906 2.3228455 0.69628906 3.5442505c0 1.2213974 -0.23208618 2.4064484 -0.69628906 3.5551453c-0.45703125 1.1414337 -1.0818787 2.155632 -1.8745728 3.0426025c-0.7926636 0.8796997 -1.7210388 1.5885468 -2.7850647 2.1265488c-1.0569153 0.5307236 -2.1852417 0.7960892 -3.3849487 0.7960892c-1.1997375 0 -2.3316345 -0.2071991 -3.3956604 -0.6216049c-1.0569153 -0.41440582 -1.9781189 -1.0251007 -2.7636719 -1.8320999c-0.77838135 -0.8069992 -1.3925476 -1.8030243 -1.8424377 -2.9880753c-0.44989014 -1.1923218 -0.6748352 -2.551857 -0.6748352 -4.0786057c0 -1.5267563 0.22494507 -2.88266 0.6748352 -4.067711c0.44989014 -1.1923218 1.0640564 -2.1919785 1.8424377 -2.9989777c0.785553 -0.8069992 1.7067566 -1.4176941 2.7636719 -1.8320999c1.0640259 -0.41440582 2.1959229 -0.6216049 3.3956604 -0.6216049zm0 -9.029655c-2.4208984 0 -4.698944 0.45439148 -6.8341675 1.3631744c-2.1280823 0.90151215 -3.9919434 2.170166 -5.5915833 3.8059769c-1.5924988 1.6358032 -2.8493652 3.5951385 -3.7705994 5.8779984c-0.9212036 2.275589 -1.3818054 4.7765503 -1.3818054 7.502899c0 2.922638 0.4606018 5.529022 1.3818054 7.819153c0.92123413 2.290123 2.1781006 4.227646 3.7705994 5.812561c1.5996399 1.5776367 3.463501 2.7808685 5.5915833 3.6096802c2.1352234 0.82881165 4.413269 1.2432098 6.8341675 1.2432098c1.1140137 0 2.210205 -0.14176941 3.2885437 -0.42530823c1.0854492 -0.28353882 2.1423645 -0.668869 3.1706848 -1.1559601c1.0283508 -0.49438477 2.0067139 -1.0723724 2.9350586 -1.733963c0.93551636 -0.668869 1.8210144 -1.3849792 2.6565552 -2.1483612l3.406372 4.8092804l2.1209412 0l0 -34.97355l-2.1209412 0l-3.406372 4.154953c-0.81411743 -0.78518677 -1.6889038 -1.5158463 -2.6244202 -2.1919785c-0.9283447 -0.67613983 -1.9067078 -1.2650299 -2.9350586 -1.7666779c-1.0283203 -0.5016403 -2.0888062 -0.89424133 -3.1813965 -1.1777802c-1.0926208 -0.28353882 -2.1959534 -0.42530823 -3.309967 -0.42530823z" fill-rule="evenodd"></path><path fill="#434343" d="m376.16956 100.15734l0 19.36795c0 2.508232 0.39993286 4.772911 1.1997375 6.7940445c0.8069763 2.013855 1.9102783 3.725998 3.309967 5.136429c1.4068298 1.4031677 3.0421753 2.486435 4.9060364 3.2498016c1.8638611 0.76338196 3.8562622 1.1450653 5.9772034 1.1450653c1.0069275 0 2.0066833 -0.2071991 2.9993286 -0.6215973c0.99975586 -0.41441345 1.9816895 -0.82881165 2.9457703 -1.2432251l0 0c-0.32138062 0.80700684 -0.73913574 1.5522003 -1.2532959 2.235611c-0.51416016 0.6906738 -1.1104736 1.2868347 -1.7888794 1.7884827c-0.67129517 0.50164795 -1.4032593 0.89424133 -2.1959229 1.1777802c-0.7926941 0.28353882 -1.6174927 0.42530823 -2.4744568 0.42530823l-4.884613 -0.06542969l0 8.996933l4.498993 0.06542969c2.420868 0 4.691803 -0.4689331 6.812744 -1.4067993c2.1209412 -0.93785095 3.9776611 -2.213791 5.57016 -3.827774c1.5996399 -1.6139984 2.860077 -3.5006256 3.7812805 -5.659897c0.92123413 -2.1592712 1.3925476 -4.4712067 1.413971 -6.9358215l0 -30.622292l-8.83728 0l0 19.36795c0 0.9378586 -0.17138672 1.8502731 -0.51416016 2.7372437c-0.34280396 0.8796997 -0.81411743 1.6685257 -1.413971 2.3664703c-0.5998535 0.69794464 -1.3032837 1.261383 -2.1102295 1.6903305c-0.7998352 0.42167664 -1.6496277 0.63251495 -2.5494385 0.63251495c-0.9212036 0 -1.7853088 -0.15267944 -2.5922546 -0.4580307c-0.7998352 -0.30534363 -1.4996643 -0.76701355 -2.0995483 -1.3849792c-0.5998535 -0.62524414 -1.0783081 -1.3995285 -1.4353638 -2.3228455c-0.34994507 -0.9305954 -0.52490234 -2.0174942 -0.52490234 -3.260704l0 -19.36795z" fill-rule="evenodd"></path><path fill="#ffffff" d="m198.08226 165.3199c0.36062622 0 0.6233673 0.09477234 0.7882385 0.28434753c0.16485596 0.1895752 0.24728394 0.37605286 0.24728394 0.55944824c0 0.18338013 -0.024719238 0.383255 -0.07418823 0.5996094l-2.565628 0c0.113342285 -0.48216248 0.3183899 -0.8427582 0.61512756 -1.0817871c0.29881287 -0.24108887 0.6285248 -0.36161804 0.98916626 -0.36161804zm-15.259216 -6.79982l-2.4110718 13.673813l3.4187775 0l0.89024353 -5.013321l1.5022888 0l1.425003 5.013321l3.6073456 0l-1.9381256 -6.778183l4.3491974 -6.89563l-3.6073303 0l-3.6073456 5.699478l-1.2178955 0l1.0077057 -5.699478zm15.744522 4.2560577c-1.4940491 0 -2.6944275 0.32557678 -3.6011658 0.9766998c-0.9046631 0.6511383 -1.4641418 1.5845642 -1.678482 2.800293l-0.39874268 2.3552094c-0.05152893 0.2905426 -0.07728577 0.5625305 -0.07728577 0.815979c0 1.8235931 1.3168182 2.735382 3.9504547 2.735382c2.8871155 0 4.5398254 -1.1837921 4.9581604 -3.551361l-3.1529388 -0.037094116c-0.037094116 0.2534485 -0.16383362 0.47496033 -0.38020325 0.6645355c-0.21432495 0.1895752 -0.47398376 0.28434753 -0.77897644 0.28434753c-0.8222351 0 -1.2333527 -0.34822083 -1.2333527 -1.044693c0 -0.12568665 0.012359619 -0.26478577 0.037094116 -0.41726685l0.07728577 -0.43580627l5.792755 0l0.22566223 -1.3506927c0.051513672 -0.32762146 0.07727051 -0.631546 0.07727051 -0.91178894c0 -1.9224854 -1.2725067 -2.8837433 -3.8175354 -2.8837433z" fill-rule="evenodd"></path><path fill="#ffffff" d="m208.56577 165.3199c0.36062622 0 0.62338257 0.09477234 0.7882385 0.28434753c0.16485596 0.1895752 0.24728394 0.37605286 0.24728394 0.55944824c0 0.18338013 -0.024719238 0.383255 -0.07417297 0.5996094l-2.5656433 0c0.113342285 -0.48216248 0.3183899 -0.8427582 0.6151428 -1.0817871c0.2987976 -0.24108887 0.6285248 -0.36161804 0.989151 -0.36161804zm10.684418 0.20707703c0.4039154 0 0.68829346 0.108184814 0.8531494 0.32453918c0.16487122 0.21429443 0.2472992 0.41726685 0.2472992 0.6088867c0 0.1895752 -0.012359619 0.34721375 -0.037094116 0.4729004l-0.2472992 1.4248657c-0.07623291 0.4553833 -0.26686096 0.7974396 -0.57185364 1.0261536c-0.30293274 0.22666931 -0.6316223 0.33999634 -0.9860687 0.33999634c-0.5687561 0 -0.9417572 -0.17721558 -1.118988 -0.5316162l0.56877136 -3.189743c0.20195007 -0.31732178 0.6326599 -0.47598267 1.2920837 -0.47598267zm-10.199112 -2.7508392c-1.4940491 0 -2.6944275 0.32557678 -3.6011505 0.9766998c-0.90467834 0.6511383 -1.4641724 1.5845642 -1.678482 2.800293l-0.39875793 2.3552094c-0.051513672 0.2905426 -0.07728577 0.5625305 -0.07728577 0.815979c0 1.8235931 1.3168335 2.735382 3.95047 2.735382c2.8871002 0 4.5398254 -1.1837921 4.9581604 -3.551361l-3.152954 -0.037094116c-0.037094116 0.2534485 -0.16383362 0.47496033 -0.38020325 0.6645355c-0.21432495 0.1895752 -0.4739685 0.28434753 -0.7789612 0.28434753c-0.8222351 0 -1.2333679 -0.34822083 -1.2333679 -1.044693c0 -0.12568665 0.012374878 -0.26478577 0.037094116 -0.41726685l0.07728577 -0.43580627l5.7927704 0l0.22564697 -1.3506927c0.051513672 -0.32762146 0.07727051 -0.631546 0.07727051 -0.91178894c0 -1.9224854 -1.2725067 -2.8837433 -3.8175354 -2.8837433zm11.43248 0.037094116c-1.0118408 0 -1.8155212 0.2534485 -2.411087 0.76034546l0.095825195 -0.5130768l-2.9272919 0l-2.543991 14.412521l3.2302246 0l1.0231628 -5.866394c0.41833496 0.5687103 1.1591644 0.8530731 2.222519 0.8530731c1.0633392 0 1.9494629 -0.3132019 2.658371 -0.939621c0.7088928 -0.6264038 1.171524 -1.5412903 1.3879089 -2.7446442l0.38020325 -2.2223053c0.061828613 -0.3296814 0.09274292 -0.639801 0.09274292 -0.9303436c0 -0.7211914 -0.17723083 -1.3156586 -0.53167725 -1.7834015c-0.4925232 -0.6840973 -1.3848267 -1.0261536 -2.6769104 -1.0261536z" fill-rule="evenodd"></path><path fill="#ffffff" d="m234.40443 159.88931l-3.4744263 1.4434204l-1.2920837 7.3468933c-0.051513672 0.3049469 -0.07728577 0.5903473 -0.07728577 0.8561554c0 0.8097992 0.24111938 1.45578 0.72332764 1.9379425c0.64501953 0.6573181 1.702179 0.9859772 3.1714935 0.9859772c3.025177 0 4.803604 -1.538208 5.3352814 -4.614609l-3.1498566 0c-0.1030426 0.57077026 -0.29055786 1.0271912 -0.56259155 1.3692474c-0.27201843 0.33998108 -0.6099701 0.50997925 -1.0138855 0.50997925c-0.7604065 0 -1.140625 -0.39871216 -1.140625 -1.1961517c0 -0.1895752 0.025772095 -0.40489197 0.07728577 -0.64598083l0.37712097 -2.1450348l5.2425385 0l0.47602844 -2.676651l-5.2425385 0l0.5502167 -3.1711884z" fill-rule="evenodd"></path><path fill="#ffffff" d="m246.5589 162.7947c-1.0241852 0 -1.8979492 0.5120392 -2.6212616 1.5361328l0.22872925 -1.2703247l-3.00148 0l-1.6135559 9.133392l3.2302246 0l1.0633392 -6.0023804c0.31529236 -0.42860413 0.68829346 -0.64289856 1.118988 -0.64289856c0.253479 0 0.45233154 0.073150635 0.59658813 0.2194519c0.14631653 0.14424133 0.21946716 0.330719 0.21946716 0.559433c0 0.42860413 -0.15763855 0.7891998 -0.47294617 1.0817871l2.868576 0l0.20709229 -0.2658081c0.14013672 -0.1895752 0.28233337 -0.48731995 0.4265747 -0.8932495c0.14631653 -0.40592957 0.21948242 -0.82421875 0.21948242 -1.2548676c0 -0.6820526 -0.2060852 -1.2188263 -0.6182251 -1.610321c-0.4100952 -0.39356995 -1.027298 -0.5903473 -1.851593 -0.5903473z" fill-rule="evenodd"></path><path fill="#ffffff" d="m254.82152 165.52698c0.5193176 0 0.8480072 0.15866089 0.9860687 0.47598267l-0.5687561 3.189743c-0.32972717 0.35440063 -0.71920776 0.5316162 -1.1684418 0.5316162c-0.44924927 0 -0.7686615 -0.09786987 -0.95825195 -0.29362488c-0.18959045 -0.195755 -0.2843933 -0.39460754 -0.2843933 -0.5965271c0 -0.20399475 0.012374878 -0.3626709 0.037094116 -0.47599792l0.2472992 -1.4248657c0.16485596 -0.9375458 0.73464966 -1.4063263 1.7093811 -1.4063263zm-0.6182251 -2.713745c-1.1705017 0 -2.1204987 0.33895874 -2.850006 1.0168762c-0.7274475 0.6758728 -1.1921387 1.5835419 -1.394104 2.7230225l-0.39875793 2.2223053c-0.06387329 0.3667755 -0.095825195 0.702652 -0.095825195 1.0076141c0 1.7844238 1.03862 2.676651 3.11586 2.676651c1.2282104 0 2.1586304 -0.506897 2.7912903 -1.5206909c0.15249634 1.013794 0.9252777 1.5206909 2.318344 1.5206909c0.7583618 0 1.4414978 -0.24726868 2.049408 -0.74180603l0.095825195 -2.1450195l0 0c-0.22872925 0.12774658 -0.5110779 0.19161987 -0.84695435 0.19161987c-0.3338623 0 -0.50076294 -0.1648407 -0.50076294 -0.4945221c0 -0.07624817 0.006164551 -0.15248108 0.01852417 -0.22872925l1.0633545 -5.9807434l-2.8871155 0l-0.095825195 0.5687103c-0.41625977 -0.5439911 -1.2106781 -0.815979 -2.383255 -0.815979z" fill-rule="evenodd"></path><path fill="#ffffff" d="m266.48337 162.77614c-1.3930664 0.012374878 -2.5429688 0.34103394 -3.449707 0.9859772c-0.9046631 0.6449585 -1.4579773 1.5752869 -1.6599121 2.7910156l-0.3987732 2.3552094c-0.051513672 0.2905426 -0.07727051 0.5625305 -0.07727051 0.815979c0 1.8235931 1.3168335 2.735382 3.95047 2.735382c2.887085 0 4.5398254 -1.1837921 4.9581604 -3.551361l-3.152954 -0.037094116c-0.037109375 0.21430969 -0.16693115 0.41004944 -0.38949585 0.587265c-0.22253418 0.17720032 -0.4729309 0.2658081 -0.75112915 0.2658081c-0.8345947 0 -1.2518921 -0.33483887 -1.2518921 -1.0045166c0 -0.11538696 0.012359619 -0.2359314 0.037078857 -0.3616333l0.24728394 -1.3877716c0.08862305 -0.49247742 0.27819824 -0.8592529 0.5687866 -1.1003418c0.29260254 -0.24107361 0.64086914 -0.36161804 1.0447998 -0.36161804c0.68414307 0 1.0262451 0.34204102 1.0262451 1.0261536c0 0.37913513 -0.1586914 0.7088318 -0.4760437 0.98905945l3.2302246 0l0.15145874 -0.19163513c0.100982666 -0.11332703 0.19888306 -0.33174133 0.29367065 -0.6552429c0.0947876 -0.32351685 0.1421814 -0.6871948 0.1421814 -1.0910645c0 -1.8730469 -1.3477173 -2.8095703 -4.0431824 -2.8095703z" fill-rule="evenodd"></path><path fill="#ffffff" d="m277.26892 165.37553c0.253479 0 0.44613647 0.06695557 0.57803345 0.20089722c0.13394165 0.13188171 0.20092773 0.30599976 0.20092773 0.5223541c0 0.9231262 -0.936615 1.4228058 -2.809845 1.4990387l0.2071228 -1.25177c0.53167725 -0.64701843 1.1395874 -0.97052 1.823761 -0.97052zm-3.5331726 -7.594162l-2.5439758 14.412521l3.2302246 0l0.51312256 -2.8868408c0.53167725 -0.024719238 0.9304199 -0.056655884 1.1962585 -0.09580994l0.055633545 0.2658081c0.22875977 1.0776672 0.54815674 1.8441925 0.95825195 2.2995758c0.4121704 0.4553833 1.0489197 0.68307495 1.9103088 0.68307495c0.8614197 0 1.5888367 -0.24726868 2.1823425 -0.74180603l0.095825195 -2.1450195l0 0c-0.22872925 0.12774658 -0.48840332 0.19161987 -0.7789612 0.19161987c-0.5687561 0 -0.9232178 -0.24107361 -1.0633545 -0.72325134l-0.21017456 -0.7016144c1.4322205 -0.7727051 2.1483154 -1.8431549 2.1483154 -3.2113647c0 -0.7088318 -0.2060852 -1.2744598 -0.6182251 -1.6968689c-0.4121399 -0.424469 -1.0478821 -0.6367035 -1.9072266 -0.6367035c-1.2797241 0 -2.292572 0.41107178 -3.0385742 1.2332306l1.1004333 -6.2465515z" fill-rule="evenodd"></path><path fill="#ffffff" d="m292.56766 165.43425c0.4121399 0 0.6996155 0.12054443 0.86242676 0.3616333c0.16485596 0.23901367 0.24728394 0.45744324 0.24728394 0.6552582c0 0.19573975 -0.012359619 0.35647583 -0.037109375 0.48216248l-0.24728394 1.4248657c-0.07623291 0.40592957 -0.253479 0.7510681 -0.53167725 1.0354309c-0.27819824 0.2843628 -0.62338257 0.42652893 -1.0355225 0.42652893c-0.4100952 0 -0.6975708 -0.11332703 -0.86242676 -0.33998108c-0.16485596 -0.22872925 -0.24728394 -0.44096375 -0.24728394 -0.63671875c0 -0.19781494 0.012359619 -0.3595581 0.037078857 -0.48526l0.24731445 -1.4248657c0.07623291 -0.4553833 0.2534485 -0.8190613 0.53167725 -1.0910645c0.27819824 -0.27198792 0.62335205 -0.4079895 1.0355225 -0.4079895zm0.55947876 -2.639557c-3.0766907 0 -4.8365784 1.2528076 -5.2796326 3.758438l-0.39874268 2.2223053c-0.06390381 0.3544159 -0.095825195 0.67689514 -0.095825195 0.9674225c0 0.8365936 0.2534485 1.4640198 0.7604065 1.8823242c0.6841736 0.55633545 1.7598877 0.83451843 3.2271423 0.83451843c1.4692993 0 2.643921 -0.27818298 3.5238647 -0.83451843c0.87994385 -0.55841064 1.4404602 -1.5083313 1.6815796 -2.8497467l0.39874268 -2.2223053c0.06390381 -0.3296814 0.095825195 -0.6336212 0.095825195 -0.91178894c0 -0.83451843 -0.27200317 -1.4866943 -0.81604004 -1.9564972c-0.6965332 -0.59342957 -1.7289734 -0.890152 -3.0973206 -0.890152z" fill-rule="evenodd"></path><path fill="#ffffff" d="m302.01477 167.1033c0.29263306 0.5954895 0.5430298 1.4186859 0.75115967 2.469574c0.20812988 1.0508728 0.31219482 2.0924835 0.31219482 3.124817c0 1.0323334 -0.13909912 1.8647919 -0.41729736 2.4973907c-0.27819824 0.6325836 -0.6130676 0.94888306 -1.0046082 0.94888306c-0.59555054 0 -0.89334106 -0.4553833 -0.89334106 -1.3661499c0 -0.3296814 0.038116455 -0.71603394 0.11437988 -1.1590576l1.1375122 -6.515457zm-1.9350281 -7.2139893l-2.4327087 13.747986c-0.1257019 0.7211914 -0.18856812 1.4454803 -0.18856812 2.1728516c0 0.72943115 0.16381836 1.3465729 0.4914856 1.8514099c0.53167725 0.79948425 1.6043091 1.199234 3.217865 1.199234c1.6156311 0 2.8953552 -0.5924072 3.8391724 -1.7772217c0.94381714 -1.1827545 1.415741 -2.698288 1.415741 -4.5466003c0 -1.5083313 -0.3008728 -2.8384094 -0.9026184 -3.990265c-0.6017456 -1.1518402 -1.3518372 -2.0883636 -2.2503357 -2.809555l3.7217102 0l0.4760437 -2.676651l-4.729431 0l0.5687866 -3.1711884z" fill-rule="evenodd"></path><path fill="#ffffff" d="m318.04626 162.77614c-1.3930664 0.012374878 -2.5429688 0.34103394 -3.449707 0.9859772c-0.9046631 0.6449585 -1.4579773 1.5752869 -1.6599121 2.7910156l-0.3987732 2.3552094c-0.051513672 0.2905426 -0.07727051 0.5625305 -0.07727051 0.815979c0 1.8235931 1.316803 2.735382 3.9504395 2.735382c2.8871155 0 4.539856 -1.1837921 4.9581604 -3.551361l-3.1529236 -0.037094116c-0.037109375 0.21430969 -0.16693115 0.41004944 -0.38949585 0.587265c-0.2225647 0.17720032 -0.4729309 0.2658081 -0.75112915 0.2658081c-0.83462524 0 -1.2519226 -0.33483887 -1.2519226 -1.0045166c0 -0.11538696 0.012359619 -0.2359314 0.037109375 -0.3616333l0.24728394 -1.3877716c0.08862305 -0.49247742 0.27819824 -0.8592529 0.5687561 -1.1003418c0.29263306 -0.24107361 0.64089966 -0.36161804 1.0447998 -0.36161804c0.6841736 0 1.0262756 0.34204102 1.0262756 1.0261536c0 0.37913513 -0.1586914 0.7088318 -0.4760437 0.98905945l3.2302246 0l0.15145874 -0.19163513c0.100982666 -0.11332703 0.19888306 -0.33174133 0.29367065 -0.6552429c0.0947876 -0.32351685 0.1421814 -0.6871948 0.1421814 -1.0910645c0 -1.8730469 -1.3477173 -2.8095703 -4.0431824 -2.8095703z" fill-rule="evenodd"></path><path fill="#ffffff" d="m325.33884 157.78137l-2.071045 11.695679c-0.05154419 0.30496216 -0.077301025 0.6604004 -0.077301025 1.06633c0 0.40386963 0.10821533 0.7768402 0.32458496 1.1188812c0.34207153 0.53163147 1.0891113 0.7974396 2.2410583 0.7974396c0.7604065 0 1.4435425 -0.24726868 2.049408 -0.74180603l0.095825195 -2.1450195l0 0c-0.22668457 0.12774658 -0.5079651 0.19161987 -0.8438721 0.19161987c-0.33590698 0 -0.5038452 -0.1648407 -0.5038452 -0.4945221c0 -0.07624817 0.006164551 -0.15248108 0.018554688 -0.22872925l1.9937744 -11.259872z" fill-rule="evenodd"></path><path fill="#ffffff" d="m334.32144 165.52698c0.5192871 0 0.84799194 0.15866089 0.98605347 0.47598267l-0.5687561 3.189743c-0.3297119 0.35440063 -0.71920776 0.5316162 -1.168457 0.5316162c-0.44921875 0 -0.76864624 -0.09786987 -0.95825195 -0.29362488c-0.1895752 -0.195755 -0.2843628 -0.39460754 -0.2843628 -0.5965271c0 -0.20399475 0.012359619 -0.3626709 0.037078857 -0.47599792l0.24728394 -1.4248657c0.16488647 -0.9375458 0.7346802 -1.4063263 1.7094116 -1.4063263zm-0.6182251 -2.713745c-1.1705017 0 -2.120514 0.33895874 -2.8500366 1.0168762c-0.727417 0.6758728 -1.1921387 1.5835419 -1.3940735 2.7230225l-0.3987732 2.2223053c-0.06387329 0.3667755 -0.095825195 0.702652 -0.095825195 1.0076141c0 1.7844238 1.0386353 2.676651 3.1158752 2.676651c1.2281799 0 2.1586304 -0.506897 2.7912598 -1.5206909c0.15249634 1.013794 0.92529297 1.5206909 2.3183594 1.5206909c0.7583618 0 1.4414978 -0.24726868 2.049408 -0.74180603l0.095825195 -2.1450195l0 0c-0.22872925 0.12774658 -0.5110779 0.19161987 -0.84695435 0.19161987c-0.3338623 0 -0.50076294 -0.1648407 -0.50076294 -0.4945221c0 -0.07624817 0.006164551 -0.15248108 0.01852417 -0.22872925l1.0633545 -5.9807434l-2.8871155 0l-0.095825195 0.5687103c-0.41625977 -0.5439911 -1.2106934 -0.815979 -2.3832397 -0.815979z" fill-rule="evenodd"></path><path fill="#ffffff" d="m346.1162 162.77614c-1.6856995 0 -2.974701 0.31011963 -3.8670044 0.9303436c-0.89230347 0.620224 -1.3384705 1.5062561 -1.3384705 2.6581116c0 0.59550476 0.1772461 1.0766296 0.53167725 1.4434204c0.35446167 0.3667755 0.7882385 0.6078491 1.3013611 0.72325134c0.51312256 0.11332703 1.0262451 0.19573975 1.5393982 0.24726868c0.51312256 0.049438477 0.9468994 0.10920715 1.3013611 0.17926025c0.35443115 0.067993164 0.53167725 0.19059753 0.53167725 0.3678131c0 0.2658081 -0.10202026 0.44610596 -0.30603027 0.54089355c-0.20196533 0.0947876 -0.53063965 0.1421814 -0.986084 0.1421814c-0.45541382 0 -0.80059814 -0.06594849 -1.0355225 -0.19781494c-0.23492432 -0.13394165 -0.33898926 -0.28952026 -0.31219482 -0.46672058l0 0l-3.1715088 0.04017639c-0.039154053 0.21430969 -0.05871582 0.42242432 -0.05871582 0.62435913c0 0.71087646 0.253479 1.2682648 0.7604065 1.6721344c0.64501953 0.5192566 1.7712097 0.7788849 3.378601 0.7788849c1.609436 0 2.8345642 -0.27198792 3.675354 -0.815979c0.8428345 -0.5439911 1.2642822 -1.3414154 1.2642822 -2.3923035c0 -0.5954895 -0.1772461 -1.0704498 -0.53167725 -1.4248657c-0.35446167 -0.3544159 -0.78515625 -0.5913849 -1.2921143 -0.7108917c-0.5069275 -0.12156677 -1.0138855 -0.2132721 -1.520813 -0.27508545c-0.5048828 -0.06387329 -0.9345703 -0.14630127 -1.2890015 -0.24726868c-0.35446167 -0.103027344 -0.53167725 -0.26786804 -0.53167725 -0.4945221c0 -0.58314514 0.4750061 -0.8747101 1.4250183 -0.8747101c0.3152771 0 0.5739136 0.054611206 0.7758484 0.16381836c0.20404053 0.10714722 0.30603027 0.24932861 0.30603027 0.42652893c0 0.17721558 -0.050476074 0.30290222 -0.15145874 0.37709045l3.1127625 0c0.253479 -0.3544159 0.3802185 -0.7397461 0.3802185 -1.1559753c0 -1.5062561 -1.2972412 -2.2593994 -3.8917236 -2.2593994z" fill-rule="evenodd"></path><path fill="#ffffff" d="m356.54272 162.77614c-1.6856995 0 -2.974701 0.31011963 -3.8670044 0.9303436c-0.89230347 0.620224 -1.33844 1.5062561 -1.33844 2.6581116c0 0.59550476 0.17721558 1.0766296 0.53167725 1.4434204c0.35443115 0.3667755 0.7882385 0.6078491 1.3013611 0.72325134c0.51312256 0.11332703 1.0262451 0.19573975 1.5393677 0.24726868c0.51312256 0.049438477 0.94692993 0.10920715 1.3013611 0.17926025c0.35446167 0.067993164 0.53167725 0.19059753 0.53167725 0.3678131c0 0.2658081 -0.10202026 0.44610596 -0.30603027 0.54089355c-0.20193481 0.0947876 -0.53063965 0.1421814 -0.98605347 0.1421814c-0.45544434 0 -0.80059814 -0.06594849 -1.0355225 -0.19781494c-0.23492432 -0.13394165 -0.33898926 -0.28952026 -0.31222534 -0.46672058l0 0l-3.1714783 0.04017639c-0.039154053 0.21430969 -0.058746338 0.42242432 -0.058746338 0.62435913c0 0.71087646 0.253479 1.2682648 0.760437 1.6721344c0.64501953 0.5192566 1.7712097 0.7788849 3.378601 0.7788849c1.609436 0 2.8345642 -0.27198792 3.6753235 -0.815979c0.842865 -0.5439911 1.2642822 -1.3414154 1.2642822 -2.3923035c0 -0.5954895 -0.17721558 -1.0704498 -0.53167725 -1.4248657c-0.35443115 -0.3544159 -0.78512573 -0.5913849 -1.2920837 -0.7108917c-0.506958 -0.12156677 -1.0138855 -0.2132721 -1.5208435 -0.27508545c-0.5048828 -0.06387329 -0.9345398 -0.14630127 -1.2890015 -0.24726868c-0.35443115 -0.103027344 -0.5316467 -0.26786804 -0.5316467 -0.4945221c0 -0.58314514 0.4749756 -0.8747101 1.4249878 -0.8747101c0.31530762 0 0.5739136 0.054611206 0.7758789 0.16381836c0.20401001 0.10714722 0.30603027 0.24932861 0.30603027 0.42652893c0 0.17721558 -0.05050659 0.30290222 -0.15148926 0.37709045l3.1127625 0c0.253479 -0.3544159 0.3802185 -0.7397461 0.3802185 -1.1559753c0 -1.5062561 -1.2972412 -2.2593994 -3.8917236 -2.2593994z" fill-rule="evenodd"></path><path fill="#ffffff" d="m370.9369 159.88931l-3.4744263 1.4434204l-1.2920837 7.3468933c-0.051513672 0.3049469 -0.07727051 0.5903473 -0.07727051 0.8561554c0 0.8097992 0.24108887 1.45578 0.72332764 1.9379425c0.644989 0.6573181 1.702179 0.9859772 3.1714783 0.9859772c3.025177 0 4.8036194 -1.538208 5.3352966 -4.614609l-3.1498718 0c-0.103027344 0.57077026 -0.29055786 1.0271912 -0.56259155 1.3692474c-0.27200317 0.33998108 -0.60998535 0.50997925 -1.0138855 0.50997925c-0.7604065 0 -1.140625 -0.39871216 -1.140625 -1.1961517c0 -0.1895752 0.025756836 -0.40489197 0.077301025 -0.64598083l0.3771057 -2.1450348l5.2425537 0l0.47601318 -2.676651l-5.242523 0l0.5502014 -3.1711884z" fill-rule="evenodd"></path><path fill="#ffffff" d="m380.24445 157.62993c-0.760437 0 -1.3209534 0.18647766 -1.6815796 0.559433c-0.36062622 0.37295532 -0.5409546 0.9643402 -0.5409546 1.7741394c0 0.9128113 0.5255127 1.3692322 1.576477 1.3692322c0.77279663 0 1.3394775 -0.18339539 1.7001343 -0.5501709c0.36062622 -0.36883545 0.5409241 -0.95196533 0.5409241 -1.7494049c0 -0.93548584 -0.53167725 -1.4032288 -1.5950012 -1.4032288zm-2.6027222 5.4305725l-1.140625 6.4165497c-0.049468994 0.30496216 -0.07418823 0.6573181 -0.07418823 1.0570679c0 0.39767456 0.113342285 0.7737274 0.34002686 1.1281433c0.34207153 0.53163147 1.0890808 0.7974396 2.2410583 0.7974396c0.7604065 0 1.438385 -0.24726868 2.033966 -0.74180603l0.0927124 -2.1450195l0 0c-0.22668457 0.12774658 -0.48529053 0.19161987 -0.7758789 0.19161987c-0.3812256 0 -0.5718384 -0.17102051 -0.5718384 -0.5130768c0 -0.06387329 0.006164551 -0.13392639 0.018554688 -0.21017456l1.063324 -5.9807434zm11.678467 -0.2658081c-1.1643066 0 -2.1256714 0.46774292 -2.8840027 1.4032288l0.20709229 -1.1374207l-3.0014954 0l-1.6135559 9.133392l3.2302246 0l1.0633545 -6.020935c0.39154053 -0.41622925 0.85931396 -0.6243439 1.4033508 -0.6243439c0.6841736 0 1.0262756 0.30392456 1.0262756 0.91178894c0 0.22666931 -0.018554688 0.45436096 -0.055633545 0.68307495l-0.89334106 5.050415l3.2271118 0l1.0262756 -5.866394c0.3812256 -0.5192566 0.9036255 -0.7788849 1.5671997 -0.7788849c0.6656189 0 0.9984131 0.30392456 0.9984131 0.91178894c0 0.22666931 -0.019561768 0.45436096 -0.05871582 0.68307495l-0.3987732 2.3335724c-0.049438477 0.29260254 -0.07418823 0.56562805 -0.07418823 0.81907654c0 1.4423828 0.8603821 2.1635742 2.5811157 2.1635742c0.7604065 0 1.438385 -0.24726868 2.0339355 -0.74180603l0.09274292 -2.1450195l0 0c-0.22668457 0.12774658 -0.48632812 0.19161987 -0.7789612 0.19161987c-0.3791809 0 -0.5687561 -0.17102051 -0.5687561 -0.5130768c0 -0.06387329 0.006164551 -0.13392639 0.01852417 -0.21017456l0.4760437 -2.8281097c0.06387329 -0.38119507 0.095825195 -0.80566406 0.095825195 -1.273407c0 -0.46774292 -0.1267395 -0.898407 -0.3802185 -1.2919769c-0.3812256 -0.5687103 -1.2086182 -0.85305786 -2.4821472 -0.85305786c-1.2714844 0 -2.2864075 0.54397583 -3.0447693 1.631958c-0.22875977 -1.0879822 -1.1663818 -1.631958 -2.8129272 -1.631958z" fill-rule="evenodd"></path><path fill="#ffffff" d="m405.0745 165.3199c0.36065674 0 0.62338257 0.09477234 0.7882385 0.28434753c0.16485596 0.1895752 0.24728394 0.37605286 0.24728394 0.55944824c0 0.18338013 -0.024719238 0.383255 -0.074157715 0.5996094l-2.5656433 0c0.113342285 -0.48216248 0.3183899 -0.8427582 0.6151428 -1.0817871c0.2987976 -0.24108887 0.6285095 -0.36161804 0.98913574 -0.36161804zm0.48532104 -2.5437622c-1.4940491 0 -2.6944275 0.32557678 -3.6011658 0.9766998c-0.9046631 0.6511383 -1.4641724 1.5845642 -1.6784668 2.800293l-0.3987732 2.3552094c-0.051513672 0.2905426 -0.07727051 0.5625305 -0.07727051 0.815979c0 1.8235931 1.3168335 2.735382 3.95047 2.735382c2.887085 0 4.5398254 -1.1837921 4.9581604 -3.551361l-3.152954 -0.037094116c-0.037109375 0.2534485 -0.16384888 0.47496033 -0.3802185 0.6645355c-0.21429443 0.1895752 -0.4739685 0.28434753 -0.7789612 0.28434753c-0.8222351 0 -1.2333679 -0.34822083 -1.2333679 -1.044693c0 -0.12568665 0.012390137 -0.26478577 0.037109375 -0.41726685l0.07727051 -0.43580627l5.7927856 0l0.22564697 -1.3506927c0.051513672 -0.32762146 0.07727051 -0.631546 0.07727051 -0.91178894c0 -1.9224854 -1.272522 -2.8837433 -3.8175354 -2.8837433z" fill-rule="evenodd"></path></g></svg>

