<?xml version="1.0" standalone="yes"?>

<svg version="1.1" viewBox="0.0 0.0 920.0 680.0" fill="none" stroke="none" stroke-linecap="square" stroke-miterlimit="10" xmlns="http://www.w3.org/2000/svg" xmlns:xlink="http://www.w3.org/1999/xlink"><clipPath id="p.0"><path d="m0 0l920.0 0l0 680.0l-920.0 0l0 -680.0z" clip-rule="nonzero"></path></clipPath><g clip-path="url(#p.0)"><path fill="#5892dc" d="m0 0l920.0 0l0 680.0l-920.0 0z" fill-rule="evenodd"></path><path fill="#434343" d="m376.8279 232.54335c-4.543152 0 -8.822571 0.8748169 -12.838226 2.6244354c-3.9986267 1.7322845 -7.495331 4.1228485 -10.490051 7.171692c-2.9777222 3.0315247 -5.3258667 6.591385 -7.0444336 10.679596c-1.7015381 4.0708923 -2.5523071 8.418945 -2.5523071 13.044189l0 79.82416l21.975525 0l0 -79.82416c0 -1.559082 0.28076172 -3.0141907 0.84228516 -4.365387c0.5614929 -1.3511963 1.3356934 -2.5291443 2.3226013 -3.5338745c1.0039062 -1.0220642 2.1694946 -1.8189087 3.496704 -2.3905792c1.3272095 -0.5716553 2.7565002 -0.8574829 4.287903 -0.8574829c1.5314026 0 2.9606934 0.28582764 4.287903 0.8574829c1.3272095 0.57167053 2.484253 1.368515 3.471161 2.3905792c1.0039062 1.0047302 1.7866211 2.1826782 2.3481445 3.5338745c0.56152344 1.3511963 0.84225464 2.806305 0.84225464 4.365387l0 79.82416l21.975555 0l0 -79.82416c0 -1.559082 0.28076172 -3.0141907 0.84225464 -4.365387c0.56152344 -1.3511963 1.3357239 -2.5291443 2.3226318 -3.5338745c1.0039062 -1.0220642 2.169464 -1.8189087 3.4966736 -2.3905792c1.3272095 -0.5716553 2.7565308 -0.8574829 4.287903 -0.8574829c1.5314026 0 2.9607239 0.28582764 4.2879333 0.8574829c1.3272095 0.57167053 2.484253 1.368515 3.471161 2.3905792c1.0039062 1.0047302 1.7951355 2.1826782 2.3736572 3.5338745c0.59555054 1.3511963 0.89331055 2.806305 0.89331055 4.365387l0 79.82416l21.898956 0l0 -79.82416c0 -4.625244 -0.85928345 -8.973297 -2.5778503 -13.044189c-1.7015381 -4.088211 -4.0496826 -7.6480713 -7.044403 -10.679596c-2.9777222 -3.0488434 -6.4743958 -5.4394073 -10.490082 -7.171692c-3.9986267 -1.7496185 -8.269531 -2.6244354 -12.812683 -2.6244354c-4.0837097 0 -8.005768 0.7448883 -11.766205 2.234665c-3.7434387 1.4724426 -7.121002 3.6118317 -10.132751 6.418152c-3.0117493 -2.8063202 -6.4063416 -4.945709 -10.183777 -6.418152c-3.7774353 -1.4897766 -7.7080383 -2.234665 -11.791748 -2.234665z" fill-rule="evenodd"></path><path fill="#434343" d="m481.5754 225.52756c-1.9397888 0 -3.7689514 0.38110352 -5.4875183 1.1433105c-1.7015381 0.7448883 -3.1818848 1.7582855 -4.44104 3.0401764c-1.2421265 1.2645874 -2.2375488 2.7716827 -2.9862366 4.5213013c-0.73165894 1.7322845 -1.0974731 3.5598602 -1.0974731 5.482712c0 1.9748077 0.3658142 3.8197021 1.0974731 5.534683c0.74868774 1.7149658 1.7441101 3.2134094 2.9862366 4.4953003c1.2591553 1.2645721 2.739502 2.2779694 4.44104 3.0401764c1.7185669 0.7448883 3.5477295 1.1173248 5.4875183 1.1173248c1.9397583 0 3.760437 -0.37243652 5.461975 -1.1173248c1.7185669 -0.76220703 3.2159424 -1.7756042 4.492096 -3.0401764c1.2761536 -1.2818909 2.2800903 -2.7803345 3.0117493 -4.4953003c0.74868774 -1.7149811 1.1230164 -3.5598755 1.1230164 -5.534683c0 -1.9228516 -0.3743286 -3.7504272 -1.1230164 -5.482712c-0.73165894 -1.7496185 -1.7355957 -3.2567139 -3.0117493 -4.5213013c-1.2761536 -1.2818909 -2.773529 -2.295288 -4.492096 -3.0401764c-1.7015381 -0.76220703 -3.5222168 -1.1433105 -5.461975 -1.1433105zm-10.56665 36.871887l0 83.487976l21.056702 0l0 -83.487976z" fill-rule="evenodd"></path><path fill="#434343" d="m545.35803 280.71848c2.8586426 0 5.547058 0.6409607 8.065369 1.9228516c2.5353394 1.2645569 4.7473145 2.9535522 6.6360474 5.0669556c1.8887329 2.0960693 3.3775635 4.5126343 4.4665527 7.2496643c1.1060181 2.719696 1.6590576 5.534668 1.6590576 8.444916c0 2.9102783 -0.55303955 5.733917 -1.6590576 8.470947c-1.0889893 2.719696 -2.5778198 5.1362305 -4.4665527 7.249634c-1.8887329 2.0960693 -4.100708 3.7850647 -6.6360474 5.066986c-2.5183105 1.2645569 -5.206726 1.8968506 -8.065369 1.8968506c-2.8585815 0 -5.555542 -0.59765625 -8.090881 -1.7929382c-2.5182495 -1.195282 -4.713257 -2.832306 -6.584961 -4.9110413c-1.8547363 -2.0787659 -3.3180542 -4.4953003 -4.3900146 -7.2496643c-1.0719604 -2.7543335 -1.6079712 -5.664612 -1.6079712 -8.730774c0 -3.5338745 0.53601074 -6.7039795 1.6079712 -9.510284c1.0719604 -2.806305 2.5352783 -5.1795654 4.3900146 -7.1197205c1.8717041 -1.957489 4.0667114 -3.4559326 6.584961 -4.495331c2.5353394 -1.0393677 5.2323 -1.5590515 8.090881 -1.5590515zm20.827026 -51.527115l0 38.97664c-1.1230469 -1.6629944 -2.5012817 -3.066162 -4.1347656 -4.2094727c-1.6334839 -1.1433105 -3.3861084 -2.061432 -5.2578125 -2.754364c-1.8546753 -0.7102356 -3.768921 -1.2212524 -5.742737 -1.533081c-1.9567871 -0.3117981 -3.854004 -0.4677124 -5.6917114 -0.4677124c-5.7682495 0 -11.196167 1.1173401 -16.283813 3.3519897c-5.0706177 2.2346497 -9.511658 5.3268127 -13.323181 9.276428c-3.7944336 3.949646 -6.789154 8.626831 -8.984161 14.031616c-2.1950073 5.4047546 -3.292511 11.251251 -3.292511 17.53946c0 6.34021 1.0975037 12.204041 3.292511 17.591461c2.1950073 5.370117 5.189728 10.021332 8.984161 13.953644c3.8115234 3.914978 8.252563 6.98114 13.323181 9.198486c5.0876465 2.2000122 10.515564 3.3000183 16.283813 3.3000183c2.654419 0 5.2662964 -0.33779907 7.8356323 -1.0133972c2.5863647 -0.67559814 5.1046753 -1.5937195 7.5549316 -2.7543335c2.4501953 -1.1779785 4.781372 -2.5551453 6.993347 -4.131531c2.229065 -1.5937195 4.3389893 -3.3000183 6.329773 -5.118927l8.116394 11.459137l5.05365 0l0 -116.69606z" fill-rule="evenodd"></path><path fill="#434343" d="m602.4025 262.55536l0 53.164124c0 4.365387 0.81677246 8.488251 2.4502563 12.368591c1.6334839 3.8630066 3.8625488 7.2236633 6.687134 10.08197c2.8415527 2.8582764 6.151062 5.118927 9.928528 6.7819214c3.7774658 1.6629944 7.8356323 2.4945068 12.174622 2.4945068c3.930542 0 7.6654663 -0.68426514 11.204712 -2.052765c3.5562134 -1.3858337 6.763672 -3.4039612 9.622253 -6.0543823c2.909668 2.6504211 6.151123 4.6685486 9.724365 6.0543823c3.5732422 1.3684998 7.2996216 2.052765 11.179199 2.052765c4.338928 0 8.40564 -0.83151245 12.200134 -2.4945068c3.8114624 -1.6629944 7.1294556 -3.923645 9.954041 -6.7819214c2.8416138 -2.858307 5.0791626 -6.2189636 6.7126465 -10.08197c1.6334839 -3.8803406 2.4501953 -8.003204 2.4501953 -12.368591l0 -53.164124l-20.826965 0l0 53.164124c0 1.4551392 -0.28076172 2.823639 -0.84228516 4.1055603c-0.56152344 1.2645569 -1.3186646 2.381897 -2.2715454 3.3519897c-0.93585205 0.9527588 -2.04187 1.7062988 -3.3180542 2.26062c-1.276123 0.5370178 -2.6289062 0.805542 -4.0581665 0.805542c-1.4293213 0 -2.7735596 -0.26852417 -4.032715 -0.805542c-1.2421265 -0.5543213 -2.3395996 -1.3078613 -3.2924805 -2.26062c-0.93585205 -0.9700928 -1.6845093 -2.0874329 -2.2460327 -3.3519897c-0.56152344 -1.2819214 -0.84228516 -2.6504211 -0.84228516 -4.1055603l0 -53.164124l-20.826965 0l0 53.164124c0 1.4551392 -0.27227783 2.823639 -0.81677246 4.1055603c-0.5274658 1.2645569 -1.276123 2.381897 -2.2460327 3.3519897c-0.96990967 0.9527588 -2.0928955 1.7062988 -3.3690796 2.26062c-1.2761841 0.5370178 -2.6289062 0.805542 -4.0581665 0.805542c-1.4293213 0 -2.7735596 -0.26852417 -4.032715 -0.805542c-1.2421265 -0.5543213 -2.3395996 -1.3078613 -3.2924805 -2.26062c-0.93585205 -0.9700928 -1.6760254 -2.0874329 -2.22052 -3.3519897c-0.5274658 -1.2819214 -0.79125977 -2.6504211 -0.79125977 -4.1055603l0 -53.164124z" fill-rule="evenodd"></path><path fill="#434343" d="m759.37067 280.71848c2.8585815 0 5.547058 0.6409607 8.065369 1.9228516c2.5352783 1.2645569 4.7473145 2.9535522 6.6360474 5.0669556c1.8887329 2.0960693 3.3775635 4.5126343 4.4665527 7.2496643c1.1060181 2.719696 1.6589966 5.534668 1.6589966 8.444916c0 2.9102783 -0.5529785 5.733917 -1.6589966 8.470947c-1.0889893 2.719696 -2.5778198 5.1362305 -4.4665527 7.249634c-1.8887329 2.0960693 -4.100769 3.7850647 -6.6360474 5.066986c-2.5183105 1.2645569 -5.206787 1.8968506 -8.065369 1.8968506c-2.8585815 0 -5.555542 -0.49371338 -8.090881 -1.4811096c-2.5183105 -0.98742676 -4.713318 -2.4425354 -6.585022 -4.365387c-1.8546753 -1.9228516 -3.3179932 -4.2960815 -4.3899536 -7.1197205c-1.0720215 -2.840973 -1.6079712 -6.080353 -1.6079712 -9.718201c0 -3.6378174 0.5359497 -6.8685303 1.6079712 -9.692169c1.0719604 -2.840973 2.5352783 -5.22287 4.3899536 -7.1457214c1.8717041 -1.9228516 4.0667114 -3.3779907 6.585022 -4.365387c2.5353394 -0.98739624 5.2323 -1.4811096 8.090881 -1.4811096zm0 -21.515106c-5.7682495 0 -11.196228 1.0827026 -16.283875 3.2480469c-5.0706177 2.1480713 -9.511658 5.1708984 -13.32312 9.068573c-3.7944336 3.8976746 -6.7891846 8.566193 -8.984192 14.005615c-2.1950073 5.4220886 -3.2924805 11.381165 -3.2924805 17.877258c0 6.9638367 1.0974731 13.174103 3.2924805 18.63086c2.1950073 5.456726 5.1897583 10.073273 8.984192 13.84967c3.8114624 3.7590942 8.252502 6.6260376 13.32312 8.600861c5.0876465 1.974823 10.515625 2.9622192 16.283875 2.9622192c2.654419 0 5.2662964 -0.33779907 7.8356323 -1.0133972c2.5863647 -0.67559814 5.1046753 -1.5937195 7.5548706 -2.7543335c2.4502563 -1.1779785 4.781372 -2.5551453 6.993408 -4.131531c2.229004 -1.5937195 4.338928 -3.3000183 6.329773 -5.118927l8.116394 11.459137l5.053589 0l0 -83.33206l-5.053589 0l-8.116394 9.900055c-1.9397583 -1.8708801 -4.02417 -3.6118164 -6.253235 -5.22287c-2.211975 -1.611023 -4.543091 -3.0141907 -6.993347 -4.2094727c-2.4502563 -1.195282 -4.977051 -2.1307068 -7.5804443 -2.806305c-2.6033325 -0.67559814 -5.232239 -1.0133972 -7.8866577 -1.0133972z" fill-rule="evenodd"></path><path fill="#434343" d="m816.1089 262.39944l0 46.148346c0 5.97641 0.95288086 11.372528 2.8585815 16.188293c1.9227905 4.798462 4.551697 8.878021 7.8867188 12.238678c3.3520508 3.3433228 7.248596 5.9244385 11.689636 7.743347c4.44104 1.8189087 9.188416 2.728363 14.242004 2.728363c2.39917 0 4.781372 -0.49371338 7.1464844 -1.4811096c2.3822021 -0.98739624 4.721863 -1.974823 7.018921 -2.9622192l0 0c-0.76568604 1.9228516 -1.7611084 3.6984558 -2.986206 5.3268127c-1.2250977 1.6456604 -2.645935 3.066162 -4.26239 4.261444c-1.5994873 1.195282 -3.343567 2.1307068 -5.2323 2.806305c-1.8886719 0.67559814 -3.854004 1.0133972 -5.895874 1.0133972l-11.638611 -0.1559143l0 21.437164l10.719788 0.15588379c5.7682495 0 11.179199 -1.1173096 16.232788 -3.3519897c5.05365 -2.2346497 9.477661 -5.274811 13.272095 -9.120514c3.8115234 -3.8457031 6.8147583 -8.341003 9.009766 -13.485931c2.1949463 -5.1448975 3.3179932 -10.653595 3.3690186 -16.526093l0 -72.964264l-21.05664 0l0 46.148346c0 2.2346497 -0.40838623 4.4086914 -1.2251587 6.5220947c-0.8167114 2.0960693 -1.9397583 3.9756165 -3.3690796 5.638611c-1.4292603 1.6629944 -3.1053467 3.0055237 -5.028076 4.027588c-1.9057617 1.0047302 -3.930542 1.5071106 -6.074524 1.5071106c-2.1950073 0 -4.2539062 -0.36380005 -6.1766357 -1.0913696c-1.9057617 -0.72753906 -3.5732422 -1.8275757 -5.0025635 -3.3000183c-1.4293213 -1.4897766 -2.569336 -3.3346558 -3.420105 -5.534668c-0.83380127 -2.2173462 -1.2506714 -4.807129 -1.2506714 -7.769348l0 -46.148346z" fill-rule="evenodd"></path><path fill="#efefef" d="m292.61874 332.43387l0 0c0 -67.93536 -55.072495 -123.00786 -123.00786 -123.00786l0 0c-32.62372 0 -63.911255 12.959717 -86.979706 36.028168c-23.06845 23.068466 -36.02817 54.356003 -36.02817 86.97969l0 0c0 67.935394 55.0725 123.00787 123.00787 123.00787l0 0c67.93536 0 123.00786 -55.07248 123.00786 -123.00787z" fill-rule="evenodd"></path><path fill="#434343" d="m169.50385 204.58539l0 0c70.599304 0 127.85788 57.181793 127.95264 127.78104c0.09475708 70.59924 -57.010162 127.93451 -127.60921 128.124l-0.055786133 -20.784546c59.130936 -0.15872192 106.95973 -48.18045 106.880356 -107.311554c-0.0793457 -59.131104 -48.03685 -107.02429 -107.168 -107.02429z" fill-rule="evenodd"></path><path fill="#434343" d="m170.38869 204.58032l0 0c-46.367752 -0.31144714 -89.27569 24.486588 -112.15445 64.818085c-22.878757 40.331482 -22.147778 89.88446 1.9106636 129.52356c24.058441 39.63907 67.67916 63.160706 114.017555 61.48169l-0.75260925 -20.771393c-38.811188 1.4062805 -75.34616 -18.294495 -95.496544 -51.4946c-20.15039 -33.200134 -20.76263 -74.703735 -1.6003036 -108.483765c19.16233 -33.78003 55.10031 -54.54988 93.93608 -54.289032z" fill-rule="evenodd"></path><path fill="#434343" d="m180.77747 275.9479l0 0c0 -6.244751 -5.0623474 -11.307098 -11.307083 -11.307098l0 0l0 0c-2.998825 0 -5.874832 1.1912842 -7.9953156 3.3117676c-2.1204834 2.1204834 -3.3117676 4.9964905 -3.3117676 7.995331l0 69.03937c0 6.2447205 5.0623474 11.307098 11.307083 11.307098l0 0l0 0c6.2447357 0 11.307083 -5.062378 11.307083 -11.307098z" fill-rule="evenodd"></path><path fill="#434343" d="m180.74438 190.15338l0 0c0 -6.2214355 -5.0434723 -11.264893 -11.264893 -11.264893l0 0l0 0c-2.9876404 0 -5.8529053 1.1868286 -7.9654846 3.299408c-2.1125793 2.1125793 -3.299408 4.977844 -3.299408 7.9654846l0 43.49678c0 6.2214355 5.043457 11.264893 11.264893 11.264893l0 0l0 0c6.2214203 0 11.264893 -5.043457 11.264893 -11.264893z" fill-rule="evenodd"></path><path fill="#434343" d="m180.74438 431.38803l0 0c0 -6.2214355 -5.0434723 -11.264893 -11.264893 -11.264893l0 0l0 0c-2.9876404 0 -5.8529053 1.1868286 -7.9654846 3.299408c-2.1125793 2.1125793 -3.299408 4.977844 -3.299408 7.9654846l0 43.496796c0 6.221405 5.043457 11.264893 11.264893 11.264893l0 0l0 0c6.2214203 0 11.264893 -5.0434875 11.264893 -11.264893z" fill-rule="evenodd"></path><path fill="#434343" d="m311.8452 343.77313l0 0c6.2214355 0 11.264893 -5.043457 11.264893 -11.264893l0 0l0 0c0 -2.9876404 -1.1868286 -5.8529053 -3.299408 -7.9654846c-2.1125793 -2.1125793 -4.977844 -3.299408 -7.9654846 -3.299408l-43.496796 0c-6.2214355 0 -11.264893 5.043457 -11.264893 11.264893l0 0l0 0c0 6.2214355 5.043457 11.264893 11.264893 11.264893z" fill-rule="evenodd"></path><path fill="#434343" d="m70.610565 343.77313l0 0c6.2214203 0 11.264885 -5.043457 11.264885 -11.264893l0 0l0 0c0 -2.9876404 -1.1868362 -5.8529053 -3.299408 -7.9654846c-2.1125793 -2.1125793 -4.977844 -3.299408 -7.965477 -3.299408l-43.496796 0c-6.221426 0 -11.264888 5.043457 -11.264888 11.264893l0 0l0 0c0 6.2214355 5.043462 11.264893 11.264888 11.264893z" fill-rule="evenodd"></path><path fill="#434343" d="m226.78831 303.20892l0 0c4.383499 -4.383484 4.383499 -11.49054 0 -15.874023l0 0l0 0c-2.105011 -2.105011 -4.9600525 -3.2875977 -7.9369965 -3.2875977c-2.9769592 0 -5.8319855 1.1825867 -7.9370117 3.2875977l-48.881897 48.881897c-4.383484 4.383484 -4.383484 11.49054 0 15.874023l0 0l0 0c4.383499 4.383484 11.49054 4.383484 15.874023 0z" fill-rule="evenodd"></path><path fill="#ffffff" d="m368.83133 392.30045c0.76812744 0 1.3277893 0.2019043 1.6789246 0.6056824c0.35116577 0.40377808 0.5267334 0.80096436 0.5267334 1.1915588c0 0.390625 -0.05267334 0.8163452 -0.15802002 1.2771606l-5.4647217 0c0.24142456 -1.0269775 0.6781616 -1.795044 1.3102112 -2.3041382c0.6364441 -0.5135193 1.3387451 -0.7702637 2.1068726 -0.7702637zm-32.501556 -14.483246l-5.135498 29.124512l7.281891 0l1.8961792 -10.678101l3.199829 0l3.0352173 10.678101l7.683502 0l-4.128174 -14.437164l9.263672 -14.687347l-7.683502 0l-7.683502 12.139587l-2.5940857 0l2.1463623 -12.139587zm33.535248 9.065216c-3.182251 0 -5.739044 0.6934204 -7.6703186 2.0803223c-1.9269104 1.3868713 -3.1185913 3.3750305 -3.5751038 5.964447l-0.8493347 5.0164795c-0.10974121 0.61883545 -0.16461182 1.1981506 -0.16461182 1.7379761c0 3.8841553 2.804779 5.826233 8.414337 5.826233c6.1494446 0 9.669647 -2.5214233 10.560699 -7.564209l-6.7156677 -0.07901001c-0.07901001 0.53982544 -0.348938 1.0116272 -0.80981445 1.4154053c-0.45651245 0.40377808 -1.009552 0.6056824 -1.6591797 0.6056824c-1.7513428 0 -2.6270142 -0.74172974 -2.6270142 -2.2251587c0 -0.2677307 0.02633667 -0.56396484 0.07901001 -0.8887634l0.16461182 -0.92822266l12.338379 0l0.48062134 -2.8769226c0.10974121 -0.69781494 0.16461182 -1.3451843 0.16461182 -1.9420471c0 -4.094818 -2.7104187 -6.142212 -8.131226 -6.142212z" fill-rule="evenodd"></path><path fill="#ffffff" d="m391.16083 392.30045c0.76812744 0 1.3277588 0.2019043 1.6789246 0.6056824c0.35113525 0.40377808 0.5267029 0.80096436 0.5267029 1.1915588c0 0.390625 -0.05267334 0.8163452 -0.15802002 1.2771606l-5.464691 0c0.24142456 -1.0269775 0.6781616 -1.795044 1.3102112 -2.3041382c0.6364441 -0.5135193 1.3387451 -0.7702637 2.1068726 -0.7702637zm22.757416 0.44110107c0.86032104 0 1.4660339 0.23040771 1.8171997 0.69122314c0.35113525 0.45645142 0.5267029 0.8887634 0.5267029 1.2969055c0 0.40377808 -0.02633667 0.7395325 -0.07901001 1.0072632l-0.5267029 3.0348816c-0.16241455 0.9699402 -0.5684204 1.6985168 -1.2180481 2.185669c-0.64523315 0.4827881 -1.3453369 0.7241516 -2.1002808 0.7241516c-1.2114563 0 -2.0059204 -0.3774414 -2.3833923 -1.1323242l1.2114258 -6.7939453c0.43017578 -0.6759033 1.3475342 -1.0138245 2.7521057 -1.0138245zm-21.723724 -5.859131c-3.182251 0 -5.739044 0.6934204 -7.670349 2.0803223c-1.9269104 1.3868713 -3.1185913 3.3750305 -3.5751038 5.964447l-0.8493347 5.0164795c-0.10971069 0.61883545 -0.1645813 1.1981506 -0.1645813 1.7379761c0 3.8841553 2.804779 5.826233 8.414307 5.826233c6.1494446 0 9.669678 -2.5214233 10.56073 -7.564209l-6.7156677 -0.07901001c-0.07901001 0.53982544 -0.3489685 1.0116272 -0.809845 1.4154053c-0.45648193 0.40377808 -1.0095215 0.6056824 -1.6591492 0.6056824c-1.7513428 0 -2.6270142 -0.74172974 -2.6270142 -2.2251587c0 -0.2677307 0.02633667 -0.56396484 0.07901001 -0.8887634l0.16461182 -0.92822266l12.338379 0l0.48062134 -2.8769226c0.10974121 -0.69781494 0.16461182 -1.3451843 0.16461182 -1.9420471c0 -4.094818 -2.7104187 -6.142212 -8.131226 -6.142212zm24.350739 0.07897949c-2.1551514 0 -3.8670044 0.53982544 -5.135498 1.6195068l0.20410156 -1.0928345l-6.235016 0l-5.41864 30.697906l6.8802795 0l2.1792908 -12.495087c0.8910217 1.2113037 2.4689941 1.8169861 4.7338867 1.8169861c2.2648926 0 4.1522827 -0.66711426 5.662201 -2.0013428c1.5099487 -1.334198 2.4953308 -3.2828674 2.9562073 -5.8459473l0.809845 -4.7333984c0.13168335 -0.7022095 0.19750977 -1.3627319 0.19750977 -1.9815674c0 -1.5361023 -0.37747192 -2.8022766 -1.1324463 -3.7985535c-1.0490417 -1.4571228 -2.9496155 -2.185669 -5.701721 -2.185669z" fill-rule="evenodd"></path><path fill="#ffffff" d="m446.19623 380.7336l-7.4003906 3.0744019l-2.7521057 15.648468c-0.10971069 0.64956665 -0.1645813 1.2574158 -0.1645813 1.8235779c0 1.724823 0.5135498 3.1007385 1.5406494 4.1277466c1.3738403 1.4000244 3.6255798 2.1000671 6.7551575 2.1000671c6.443512 0 10.231506 -3.2763062 11.363953 -9.828857l-6.709076 0c-0.21948242 1.2156982 -0.6188965 2.1878357 -1.1983032 2.9163818c-0.5793762 0.7241821 -1.2992249 1.0862427 -2.1595154 1.0862427c-1.6196594 0 -2.4295044 -0.84924316 -2.4295044 -2.5477295c0 -0.40377808 0.054870605 -0.86239624 0.16461182 -1.3759155l0.80322266 -4.5687866l11.166443 0l1.013916 -5.7011414l-11.166412 0l1.171936 -6.7544556z" fill-rule="evenodd"></path><path fill="#ffffff" d="m472.0848 386.9219c-2.181488 0 -4.042572 1.0906372 -5.5832214 3.271881l0.48721313 -2.705719l-6.393036 0l-3.4368286 19.453644l6.880249 0l2.2648926 -12.7847595c0.6715698 -0.91290283 1.4660339 -1.3693237 2.3833923 -1.3693237c0.5398865 0 0.96347046 0.15579224 1.2707214 0.46740723c0.311615 0.30722046 0.46743774 0.70440674 0.46743774 1.1915588c0 0.91290283 -0.3357544 1.6809387 -1.0073242 2.3041687l6.1099243 0l0.4411316 -0.5661621c0.2984619 -0.40377808 0.60131836 -1.0379639 0.90856934 -1.9025879c0.3116455 -0.8645935 0.46746826 -1.7555237 0.46746826 -2.6727905c0 -1.4527283 -0.43893433 -2.5960388 -1.316803 -3.4299011c-0.8734741 -0.83828735 -2.1880798 -1.2574158 -3.9437866 -1.2574158z" fill-rule="evenodd"></path><path fill="#ffffff" d="m489.6839 392.74155c1.1061096 0 1.8061829 0.33792114 2.1002808 1.0138245l-1.2114563 6.7939453c-0.702301 0.7548828 -1.5318604 1.1323242 -2.488739 1.1323242c-0.95687866 0 -1.637207 -0.20846558 -2.0410461 -0.6253967c-0.4038086 -0.41696167 -0.6057129 -0.8404846 -0.6057129 -1.2705688c0 -0.43450928 0.02633667 -0.77246094 0.07901001 -1.013855l0.5267029 -3.0348816c0.35113525 -1.9969482 1.5647888 -2.9953918 3.6409607 -2.9953918zm-1.316803 -5.7801514c-2.4931335 0 -4.5166016 0.72198486 -6.0704346 2.165924c-1.5494385 1.4395447 -2.539215 3.3728333 -2.9693909 5.7998657l-0.8493042 4.7333984c-0.13607788 0.7812195 -0.20413208 1.496582 -0.20413208 2.1461487c0 3.8007507 2.2122192 5.7011414 6.6366577 5.7011414c2.6160278 0 4.597809 -1.0796814 5.945343 -3.2389832c0.32479858 2.1593018 1.9707947 3.2389832 4.9379883 3.2389832c1.6152649 0 3.0703125 -0.52667236 4.3651733 -1.5799866l0.20410156 -4.568817l0 0c-0.48721313 0.27212524 -1.088562 0.4081726 -1.8040161 0.4081726c-0.7110596 0 -1.0665894 -0.35110474 -1.0665894 -1.0533447c0 -0.16238403 0.013153076 -0.32476807 0.039489746 -0.4871521l2.2648926 -12.738678l-6.1494446 0l-0.20410156 1.2113342c-0.8866272 -1.1586609 -2.5787048 -1.7380066 -5.076233 -1.7380066z" fill-rule="evenodd"></path><path fill="#ffffff" d="m514.5232 386.88242c-2.9671936 0.026306152 -5.416443 0.7263489 -7.3477173 2.1000671c-1.9269409 1.3737183 -3.1054688 3.3552856 -3.535614 5.944702l-0.8493347 5.0164795c-0.10974121 0.61883545 -0.1645813 1.1981506 -0.1645813 1.7379761c0 3.8841553 2.8047485 5.826233 8.414307 5.826233c6.1494446 0 9.669708 -2.5214233 10.560699 -7.564209l-6.715637 -0.07901001c-0.07904053 0.45645142 -0.3555298 0.87338257 -0.82958984 1.250824c-0.47406006 0.3774414 -1.0073242 0.5661621 -1.5999146 0.5661621c-1.7776794 0 -2.666504 -0.7131958 -2.666504 -2.139557c0 -0.24578857 0.02633667 -0.50253296 0.07901001 -0.7702637l0.5267029 -2.9558716c0.18875122 -1.0489502 0.5925598 -1.8301697 1.2114563 -2.3436584c0.6232605 -0.5135193 1.3650818 -0.7702637 2.2253723 -0.7702637c1.4572754 0 2.185913 0.72854614 2.185913 2.185669c0 0.80755615 -0.3380127 1.5097656 -1.013977 2.106659l6.88031 0l0.3225708 -0.4081726c0.21508789 -0.24139404 0.42358398 -0.706604 0.6254883 -1.3956604c0.2019043 -0.6890564 0.30285645 -1.4636841 0.30285645 -2.3239136c0 -3.9894714 -2.8706055 -5.984192 -8.611816 -5.984192z" fill-rule="evenodd"></path><path fill="#ffffff" d="m537.496 392.41895c0.539917 0 0.9503174 0.14263916 1.2312012 0.42791748c0.28533936 0.2808838 0.42797852 0.6517639 0.42797852 1.1125793c0 1.966217 -1.9949341 3.0305176 -5.9848022 3.1929016l0.44110107 -2.6662292c1.1324463 -1.3781128 2.4273071 -2.0671692 3.8845215 -2.0671692zm-7.5254517 -16.17514l-5.41864 30.697906l6.880249 0l1.0929565 -6.1488037c1.1324463 -0.05267334 1.9818115 -0.12069702 2.5480347 -0.20407104l0.11846924 0.5661621c0.48724365 2.2953491 1.1676025 3.928009 2.0410767 4.897949c0.8778076 0.9699402 2.2341309 1.4549255 4.0688477 1.4549255c1.8347778 0 3.3842163 -0.52667236 4.6483154 -1.5799866l0.20410156 -4.568817l0 0c-0.48724365 0.27212524 -1.0402832 0.4081726 -1.6591797 0.4081726c-1.2114258 0 -1.9663696 -0.5135193 -2.2648926 -1.5404968l-0.44769287 -1.4944153c3.0505981 -1.645813 4.5758667 -3.9258423 4.5758667 -6.840027c0 -1.5097961 -0.4389038 -2.7145386 -1.3167725 -3.6142578c-0.87786865 -0.90408325 -2.2319946 -1.3561401 -4.062317 -1.3561401c-2.725769 0 -4.8831177 0.87557983 -6.472046 2.6267395l2.343872 -13.30484z" fill-rule="evenodd"></path><path fill="#ffffff" d="m570.0817 392.54404c0.87786865 0 1.4901733 0.25674438 1.8369141 0.77023315c0.3511963 0.50912476 0.5267334 0.9743347 0.5267334 1.3956604c0 0.41696167 -0.026306152 0.75927734 -0.07897949 1.027008l-0.5267334 3.0348816c-0.16241455 0.864624 -0.539917 1.599762 -1.1324463 2.2054138c-0.59259033 0.6056824 -1.3277588 0.9085083 -2.2056274 0.9085083c-0.8734741 0 -1.4857788 -0.24139404 -1.8369141 -0.7241821c-0.3511963 -0.4871521 -0.5267334 -0.939209 -0.5267334 -1.3561401c0 -0.42132568 0.026306152 -0.76586914 0.07897949 -1.0335999l0.5267334 -3.0348816c0.16241455 -0.9699402 0.539917 -1.7445679 1.1324463 -2.3239136c0.5925293 -0.5793152 1.3277588 -0.86898804 2.2056274 -0.86898804zm1.1917114 -5.6221313c-6.5532837 0 -10.301758 2.6684265 -11.245422 8.00528l-0.84936523 4.7333984c-0.13604736 0.7548828 -0.20410156 1.441742 -0.20410156 2.0605774c0 1.7818604 0.539917 3.1182861 1.61969 4.0092163c1.4572144 1.1849976 3.7484741 1.7774963 6.873657 1.7774963c3.1295776 0 5.6314697 -0.5924988 7.5057373 -1.7774963c1.8742065 -1.1893921 3.0681152 -3.2126465 3.581665 -6.0697937l0.84936523 -4.7333984c0.13604736 -0.7022095 0.20410156 -1.3495789 0.20410156 -1.9420776c0 -1.7774658 -0.57940674 -3.166565 -1.7381592 -4.167206c-1.4836426 -1.2640076 -3.6826782 -1.8959961 -6.597168 -1.8959961z" fill-rule="evenodd"></path><path fill="#ffffff" d="m590.2038 396.09903c0.623291 1.2683716 1.1565552 3.0217285 1.5999146 5.2600403c0.44329834 2.2383118 0.664978 4.4568787 0.664978 6.6557007c0 2.198822 -0.29626465 3.9719238 -0.888855 5.3193054c-0.5925293 1.3473816 -1.3057861 2.0210876 -2.1397705 2.0210876c-1.2685547 0 -1.902771 -0.9699402 -1.902771 -2.9098206c0 -0.7022095 0.08117676 -1.5251465 0.24359131 -2.46875l2.4229126 -13.877563zm-4.121582 -15.3654175l-5.1815796 29.282501c-0.26776123 1.5361023 -0.40161133 3.0787659 -0.40161133 4.6280518c0 1.5536499 0.348938 2.868103 1.046814 3.94339c1.1324463 1.7028809 3.4171143 2.5543213 6.853943 2.5543213c3.4412231 0 6.166992 -1.2618103 8.177307 -3.7854004c2.010315 -2.5191956 3.015442 -5.747223 3.015442 -9.684021c0 -3.2126465 -0.6408081 -6.0456543 -1.9224854 -8.499054c-1.2816772 -2.4533691 -2.8793945 -4.4480896 -4.793152 -5.984192l7.927124 0l1.013916 -5.7011414l-10.073486 0l1.2114258 -6.7544556z" fill-rule="evenodd"></path><path fill="#ffffff" d="m624.3502 386.88242c-2.967163 0.026306152 -5.416382 0.7263489 -7.3477173 2.1000671c-1.9268799 1.3737183 -3.1054077 3.3552856 -3.5355835 5.944702l-0.84936523 5.0164795c-0.109680176 0.61883545 -0.16455078 1.1981506 -0.16455078 1.7379761c0 3.8841553 2.8047485 5.826233 8.414307 5.826233c6.149414 0 9.669678 -2.5214233 10.56073 -7.564209l-6.7156982 -0.07901001c-0.07897949 0.45645142 -0.3555298 0.87338257 -0.82958984 1.250824c-0.47399902 0.3774414 -1.0073242 0.5661621 -1.5999146 0.5661621c-1.7776489 0 -2.666504 -0.7131958 -2.666504 -2.139557c0 -0.24578857 0.026367188 -0.50253296 0.07904053 -0.7702637l0.5267334 -2.9558716c0.1887207 -1.0489502 0.5925293 -1.8301697 1.2114258 -2.3436584c0.623291 -0.5135193 1.3650513 -0.7702637 2.2254028 -0.7702637c1.4572144 0 2.185852 0.72854614 2.185852 2.185669c0 0.80755615 -0.33795166 1.5097656 -1.013916 2.106659l6.880249 0l0.32263184 -0.4081726c0.21508789 -0.24139404 0.42358398 -0.706604 0.6254883 -1.3956604c0.2019043 -0.6890564 0.30285645 -1.4636841 0.30285645 -2.3239136c0 -3.9894714 -2.8706055 -5.984192 -8.611877 -5.984192z" fill-rule="evenodd"></path><path fill="#ffffff" d="m639.8832 376.2438l-4.411316 24.911194c-0.109680176 0.64953613 -0.16455078 1.4066162 -0.16455078 2.2712402c0 0.860199 0.23040771 1.6545715 0.6912842 2.3831482c0.7286377 1.1323242 2.3197632 1.6984863 4.7733765 1.6984863c1.61969 0 3.074707 -0.52667236 4.3651733 -1.5799866l0.20410156 -4.568817l0 0c-0.4827881 0.27212524 -1.0819092 0.4081726 -1.7974243 0.4081726c-0.7154541 0 -1.0731812 -0.35110474 -1.0731812 -1.0533447c0 -0.16238403 0.013183594 -0.32476807 0.039489746 -0.4871521l4.246704 -23.98294z" fill-rule="evenodd"></path><path fill="#ffffff" d="m659.01575 392.74155c1.1061401 0 1.8062134 0.33792114 2.1002808 1.0138245l-1.2114258 6.7939453c-0.7022705 0.7548828 -1.5318604 1.1323242 -2.4887695 1.1323242c-0.95684814 0 -1.637207 -0.20846558 -2.0410156 -0.6253967c-0.4038086 -0.41696167 -0.6057129 -0.8404846 -0.6057129 -1.2705688c0 -0.43450928 0.026306152 -0.77246094 0.07897949 -1.013855l0.5267334 -3.0348816c0.35113525 -1.9969482 1.5648193 -2.9953918 3.6409302 -2.9953918zm-1.3167725 -5.7801514c-2.493164 0 -4.5166016 0.72198486 -6.0704346 2.165924c-1.5494385 1.4395447 -2.5392456 3.3728333 -2.9693604 5.7998657l-0.84936523 4.7333984c-0.13604736 0.7812195 -0.20410156 1.496582 -0.20410156 2.1461487c0 3.8007507 2.2122192 5.7011414 6.6366577 5.7011414c2.6160278 0 4.5978394 -1.0796814 5.9453125 -3.2389832c0.3248291 2.1593018 1.9708252 3.2389832 4.9379883 3.2389832c1.6152954 0 3.0703735 -0.52667236 4.3651733 -1.5799866l0.20410156 -4.568817l0 0c-0.48718262 0.27212524 -1.088501 0.4081726 -1.8039551 0.4081726c-0.7111206 0 -1.0666504 -0.35110474 -1.0666504 -1.0533447c0 -0.16238403 0.013183594 -0.32476807 0.03955078 -0.4871521l2.2648315 -12.738678l-6.149414 0l-0.20410156 1.2113342c-0.8866577 -1.1586609 -2.5787354 -1.7380066 -5.076233 -1.7380066z" fill-rule="evenodd"></path><path fill="#ffffff" d="m684.1382 386.88242c-3.590454 0 -6.3359985 0.66052246 -8.236572 1.9815674c-1.9005737 1.3210449 -2.850891 3.208252 -2.850891 5.661621c0 1.2683716 0.37750244 2.2931824 1.1324463 3.0744019c0.7550049 0.7812195 1.6789551 1.2947083 2.7719116 1.5404968c1.0928955 0.24139404 2.185852 0.41693115 3.2788086 0.52667236c1.0928955 0.10531616 2.0168457 0.23260498 2.7718506 0.38180542c0.75494385 0.14483643 1.1324463 0.40597534 1.1324463 0.78341675c0 0.5661621 -0.21728516 0.9501953 -0.65185547 1.1520996c-0.43011475 0.20187378 -1.130188 0.30282593 -2.1002808 0.30282593c-0.97003174 0 -1.7052612 -0.1404419 -2.2056274 -0.42132568c-0.5003662 -0.28527832 -0.7220459 -0.6166382 -0.664978 -0.9940796l0 0l-6.755127 0.08557129c-0.08343506 0.45645142 -0.12512207 0.89971924 -0.12512207 1.329834c0 1.5141602 0.53985596 2.7013245 1.6196289 3.561554c1.3739014 1.1059875 3.772644 1.6589966 7.196289 1.6589966c3.4281006 0 6.0375366 -0.5793457 7.828369 -1.7380066c1.795227 -1.1586609 2.692871 -2.8571472 2.692871 -5.095459c0 -1.2683716 -0.37750244 -2.2800293 -1.1324463 -3.034912c-0.75494385 -0.7548828 -1.6723633 -1.2595825 -2.7521362 -1.5141602c-1.079773 -0.25894165 -2.159546 -0.45422363 -3.2393188 -0.585907c-1.0753784 -0.13604736 -1.9905396 -0.311615 -2.7454834 -0.52664185c-0.7550049 -0.2194519 -1.1324463 -0.57055664 -1.1324463 -1.0533447c0 -1.2420349 1.0117188 -1.8630676 3.0352173 -1.8630676c0.6715698 0 1.2224121 0.11630249 1.6525879 0.34890747c0.43450928 0.22824097 0.65179443 0.5310669 0.65179443 0.9085083c0 0.3774414 -0.107543945 0.6451416 -0.32263184 0.8031616l6.630066 0c0.539917 -0.7548828 0.8098755 -1.5756226 0.8098755 -2.4621582c0 -3.208252 -2.7631226 -4.812378 -8.289246 -4.812378z" fill-rule="evenodd"></path><path fill="#ffffff" d="m706.3463 386.88242c-3.5905151 0 -6.3359985 0.66052246 -8.236572 1.9815674c-1.9005737 1.3210449 -2.850891 3.208252 -2.850891 5.661621c0 1.2683716 0.37750244 2.2931824 1.1324463 3.0744019c0.7550049 0.7812195 1.6789551 1.2947083 2.7718506 1.5404968c1.0929565 0.24139404 2.185913 0.41693115 3.2788696 0.52667236c1.0928955 0.10531616 2.0168457 0.23260498 2.7718506 0.38180542c0.75494385 0.14483643 1.1324463 0.40597534 1.1324463 0.78341675c0 0.5661621 -0.21728516 0.9501953 -0.65185547 1.1520996c-0.43011475 0.20187378 -1.130249 0.30282593 -2.1002808 0.30282593c-0.97003174 0 -1.7052612 -0.1404419 -2.2056274 -0.42132568c-0.5003662 -0.28527832 -0.7220459 -0.6166382 -0.664978 -0.9940796l0 0l-6.755188 0.08557129c-0.08337402 0.45645142 -0.12506104 0.89971924 -0.12506104 1.329834c0 1.5141602 0.53985596 2.7013245 1.6196289 3.561554c1.3739014 1.1059875 3.772644 1.6589966 7.196289 1.6589966c3.4281006 0 6.0375366 -0.5793457 7.828369 -1.7380066c1.795227 -1.1586609 2.692871 -2.8571472 2.692871 -5.095459c0 -1.2683716 -0.37750244 -2.2800293 -1.1324463 -3.034912c-0.7550049 -0.7548828 -1.6723633 -1.2595825 -2.7521362 -1.5141602c-1.079773 -0.25894165 -2.159546 -0.45422363 -3.2393188 -0.585907c-1.0753784 -0.13604736 -1.9905396 -0.311615 -2.7454834 -0.52664185c-0.7550049 -0.2194519 -1.1324463 -0.57055664 -1.1324463 -1.0533447c0 -1.2420349 1.0117188 -1.8630676 3.0352173 -1.8630676c0.6715698 0 1.2224121 0.11630249 1.6525879 0.34890747c0.43450928 0.22824097 0.65179443 0.5310669 0.65179443 0.9085083c0 0.3774414 -0.107543945 0.6451416 -0.32263184 0.8031616l6.630066 0c0.539917 -0.7548828 0.80981445 -1.5756226 0.80981445 -2.4621582c0 -3.208252 -2.7630615 -4.812378 -8.289185 -4.812378z" fill-rule="evenodd"></path><path fill="#ffffff" d="m737.0053 380.7336l-7.4003906 3.0744019l-2.7520752 15.648468c-0.10974121 0.64956665 -0.16461182 1.2574158 -0.16461182 1.8235779c0 1.724823 0.5135498 3.1007385 1.5406494 4.1277466c1.3738403 1.4000244 3.6256104 2.1000671 6.755188 2.1000671c6.4434814 0 10.231506 -3.2763062 11.363953 -9.828857l-6.7091064 0c-0.21948242 1.2156982 -0.6188965 2.1878357 -1.1982422 2.9163818c-0.57940674 0.7241821 -1.2992554 1.0862427 -2.159546 1.0862427c-1.61969 0 -2.4295044 -0.84924316 -2.4295044 -2.5477295c0 -0.40377808 0.054870605 -0.86239624 0.16461182 -1.3759155l0.80322266 -4.5687866l11.166443 0l1.013916 -5.7011414l-11.166443 0l1.171936 -6.7544556z" fill-rule="evenodd"></path><path fill="#ffffff" d="m756.8301 375.9212c-1.61969 0 -2.8135986 0.3972168 -3.581726 1.1915894c-0.76812744 0.79437256 -1.1521606 2.0539856 -1.1521606 3.7788086c0 1.9442749 1.1192627 2.9164124 3.357788 2.9164124c1.6459961 0 2.8530884 -0.390625 3.6212158 -1.1718445c0.76812744 -0.785614 1.1522217 -2.027649 1.1522217 -3.7261353c0 -1.9925537 -1.1324463 -2.9888306 -3.3973389 -2.9888306zm-5.543701 11.566864l-2.4295044 13.666931c-0.10534668 0.64953613 -0.15802002 1.4000244 -0.15802002 2.2514648c0 0.8470459 0.24139404 1.6480408 0.72424316 2.4029236c0.7286377 1.1323242 2.3197632 1.6984863 4.7733765 1.6984863c1.6196289 0 3.0637207 -0.52667236 4.3322754 -1.5799866l0.19750977 -4.568817l0 0c-0.48284912 0.27212524 -1.0336914 0.4081726 -1.6525879 0.4081726c-0.8120117 0 -1.2180176 -0.36428833 -1.2180176 -1.0928345c0 -0.13604736 0.013122559 -0.28527832 0.039489746 -0.44766235l2.2648926 -12.738678zm24.874695 -0.5661621c-2.4799194 0 -4.527588 0.99627686 -6.1428223 2.9888l0.44110107 -2.422638l-6.3930054 0l-3.4368896 19.453644l6.88031 0l2.2648315 -12.82428c0.8339844 -0.88653564 1.8303833 -1.3298035 2.9891357 -1.3298035c1.4572754 0 2.185913 0.64733887 2.185913 1.9420471c0 0.4827881 -0.039489746 0.96777344 -0.11853027 1.4549255l-1.902771 10.757111l6.873657 0l2.185913 -12.495117c0.8120117 -1.1059875 1.9247437 -1.6589661 3.3380737 -1.6589661c1.4177246 0 2.126648 0.64733887 2.126648 1.9420471c0 0.4827881 -0.041748047 0.96777344 -0.12512207 1.4549255l-0.8493042 4.970398c-0.10534668 0.62319946 -0.15802002 1.2047424 -0.15802002 1.7445679c0 3.0722046 1.8325195 4.608307 5.4976196 4.608307c1.6196289 0 3.0637207 -0.52667236 4.3322144 -1.5799866l0.1975708 -4.568817l0 0c-0.48284912 0.27212524 -1.0358887 0.4081726 -1.6591797 0.4081726c-0.8076782 0 -1.2114868 -0.36428833 -1.2114868 -1.0928345c0 -0.13604736 0.013183594 -0.28527832 0.03955078 -0.44766235l1.013916 -6.023712c0.13604736 -0.8119507 0.20410156 -1.7160645 0.20410156 -2.7123108c0 -0.99627686 -0.2699585 -1.9135437 -0.80981445 -2.751831c-0.8120117 -1.2113342 -2.5743408 -1.8169861 -5.2869263 -1.8169861c-2.708252 0 -4.869995 1.1586609 -6.4852295 3.4759827c-0.48724365 -2.3173218 -2.484375 -3.4759827 -5.991455 -3.4759827z" fill-rule="evenodd"></path><path fill="#ffffff" d="m809.71716 392.30045c0.7681885 0 1.3278198 0.2019043 1.6789551 0.6056824c0.35113525 0.40377808 0.52667236 0.80096436 0.52667236 1.1915588c0 0.390625 -0.052612305 0.8163452 -0.15795898 1.2771606l-5.4647217 0c0.24139404 -1.0269775 0.6781616 -1.795044 1.3101807 -2.3041382c0.6364746 -0.5135193 1.3388062 -0.7702637 2.1068726 -0.7702637zm1.0336914 -5.41803c-3.182251 0 -5.7390137 0.6934204 -7.670349 2.0803223c-1.9268799 1.3868713 -3.1185913 3.3750305 -3.5750732 5.964447l-0.8493042 5.0164795c-0.10974121 0.61883545 -0.16461182 1.1981506 -0.16461182 1.7379761c0 3.8841553 2.8047485 5.826233 8.414307 5.826233c6.149414 0 9.669678 -2.5214233 10.56073 -7.564209l-6.7156982 -0.07901001c-0.07897949 0.53982544 -0.348938 1.0116272 -0.80981445 1.4154053c-0.45648193 0.40377808 -1.0095215 0.6056824 -1.6591797 0.6056824c-1.7513428 0 -2.6270142 -0.74172974 -2.6270142 -2.2251587c0 -0.2677307 0.026367188 -0.56396484 0.07904053 -0.8887634l0.16461182 -0.92822266l12.338379 0l0.48059082 -2.8769226c0.10974121 -0.69781494 0.16461182 -1.3451843 0.16461182 -1.9420471c0 -4.094818 -2.7103882 -6.142212 -8.131226 -6.142212z" fill-rule="evenodd"></path></g></svg>

