<?xml version="1.0" standalone="yes"?>

<svg version="1.1" viewBox="0.0 0.0 1400.0 560.0" fill="none" stroke="none" stroke-linecap="square" stroke-miterlimit="10" xmlns="http://www.w3.org/2000/svg" xmlns:xlink="http://www.w3.org/1999/xlink"><clipPath id="p.0"><path d="m0 0l1400.0 0l0 560.0l-1400.0 0l0 -560.0z" clip-rule="nonzero"></path></clipPath><g clip-path="url(#p.0)"><path fill="#5892dc" d="m0 0l1400.0 0l0 560.0l-1400.0 0z" fill-rule="evenodd"></path><path fill="#434343" d="m602.1837 157.07419c-4.80249 0 -9.326172 0.92471313 -13.571045 2.7741394c-4.2268677 1.831131 -7.9231567 4.3580627 -11.088806 7.580841c-3.147705 3.2044525 -5.629883 6.967407 -7.446533 11.288849c-1.798706 4.303131 -2.698059 8.899231 -2.698059 13.788315l0 84.377975l23.22992 0l0 -84.377975c0 -1.647995 0.29681396 -3.186142 0.89038086 -4.6144104c0.5935669 -1.4282684 1.4119263 -2.6734314 2.4552002 -3.735489c1.0612183 -1.0803528 2.293274 -1.9226685 3.696289 -2.526947c1.4029541 -0.6042633 2.9138184 -0.9064026 4.532654 -0.9064026c1.6188354 0 3.1296997 0.30213928 4.532654 0.9064026c1.4029541 0.60427856 2.6260986 1.4465942 3.6693115 2.526947c1.0612183 1.0620575 1.8886108 2.3072205 2.4821777 3.735489c0.5935669 1.4282684 0.8903198 2.9664154 0.8903198 4.6144104l0 84.377975l23.22998 0l0 -84.377975c0 -1.647995 0.29675293 -3.186142 0.8903198 -4.6144104c0.5935669 -1.4282684 1.4119873 -2.6734314 2.4552002 -3.735489c1.0612183 -1.0803528 2.293335 -1.9226685 3.696289 -2.526947c1.4029541 -0.6042633 2.9138184 -0.9064026 4.532654 -0.9064026c1.6188354 0 3.1296997 0.30213928 4.532654 0.9064026c1.4029541 0.60427856 2.6260986 1.4465942 3.6693115 2.526947c1.0612183 1.0620575 1.897644 2.3072205 2.5091553 3.735489c0.6295166 1.4282684 0.94433594 2.9664154 0.94433594 4.6144104l0 84.377975l23.148987 0l0 -84.377975c0 -4.889084 -0.90838623 -9.485184 -2.7250366 -13.788315c-1.798645 -4.3214417 -4.2808228 -8.084396 -7.446533 -11.288849c-3.147644 -3.2227783 -6.843933 -5.74971 -11.088806 -7.580841c-4.2269287 -1.8494263 -8.741577 -2.7741394 -13.544067 -2.7741394c-4.3168335 0 -8.462769 0.78738403 -12.437866 2.362152c-3.9570923 1.5564423 -7.527466 3.817871 -10.711121 6.7842865c-3.1836548 -2.9664154 -6.7720337 -5.227844 -10.765076 -6.7842865c-3.993103 -1.5747681 -8.14801 -2.362152 -12.464844 -2.362152z" fill-rule="evenodd"></path><path fill="#434343" d="m712.91034 149.65816c-2.050537 0 -3.9840698 0.4028473 -5.8007812 1.2085419c-1.798645 0.78738403 -3.3635254 1.8585815 -4.694519 3.2136078c-1.3130493 1.3367157 -2.3652344 2.9297943 -3.1566772 4.7792206c-0.7734375 1.8311157 -1.1601562 3.7629547 -1.1601562 5.7955017c0 2.0874634 0.38671875 4.037613 1.1601562 5.850418c0.7914429 1.8128052 1.8436279 3.3967285 3.1566772 4.7517548c1.3309937 1.3367157 2.895874 2.4079285 4.694519 3.2136078c1.8167114 0.78738403 3.7502441 1.181076 5.8007812 1.181076c2.050476 0 3.9750366 -0.39369202 5.7737427 -1.181076c1.8166504 -0.8056793 3.399475 -1.8768921 4.748474 -3.2136078c1.34906 -1.3550262 2.4102783 -2.9389496 3.1837158 -4.7517548c0.79138184 -1.8128052 1.1870728 -3.7629547 1.1870728 -5.850418c0 -2.032547 -0.39569092 -3.964386 -1.1870728 -5.7955017c-0.7734375 -1.8494263 -1.8346558 -3.442505 -3.1837158 -4.7792206c-1.348999 -1.3550262 -2.9318237 -2.4262238 -4.748474 -3.2136078c-1.798706 -0.8056946 -3.7232666 -1.2085419 -5.7737427 -1.2085419zm-11.1698 38.975372l0 88.25078l22.258606 0l0 -88.25078z" fill-rule="evenodd"></path><path fill="#434343" d="m780.33374 207.9976c3.0217896 0 5.8637085 0.67752075 8.525757 2.032547c2.6799927 1.3367157 5.0183105 3.122055 7.0148315 5.356018c1.996521 2.2156525 3.5703735 4.7700653 4.7215576 7.6632385c1.1691284 2.8748474 1.7536621 5.850418 1.7536621 8.926697c0 3.0762787 -0.5845337 6.0610046 -1.7536621 8.954178c-1.1511841 2.8748474 -2.7250366 5.4292603 -4.7215576 7.6632233c-1.996521 2.2156525 -4.334839 4.000992 -7.0148315 5.356018c-2.6620483 1.3367157 -5.5039673 2.0050812 -8.525757 2.0050812c-3.0217896 0 -5.8726807 -0.6317291 -8.552673 -1.8952026c-2.6620483 -1.2634735 -4.982361 -2.9938812 -6.9608765 -5.191223c-1.9605713 -2.197342 -3.5074463 -4.7517548 -4.640625 -7.6632385c-1.1331787 -2.9114685 -1.6997681 -5.9877625 -1.6997681 -9.228836c0 -3.735489 0.56658936 -7.086426 1.6997681 -10.052841c1.1331787 -2.9664154 2.6800537 -5.4750366 4.640625 -7.525894c1.9785156 -2.069168 4.298828 -3.6530914 6.9608765 -4.7517548c2.6799927 -1.0986786 5.530884 -1.6480103 8.552673 -1.6480103zm22.015808 -54.46663l0 41.20018c-1.1870728 -1.7578735 -2.644043 -3.2410889 -4.3707886 -4.4496307c-1.7266846 -1.2085266 -3.5793457 -2.1790314 -5.5578613 -2.9114685c-1.9605713 -0.75076294 -3.9840698 -1.2909393 -6.0705566 -1.6205444c-2.0684814 -0.3296051 -4.0740356 -0.49440002 -6.0166016 -0.49440002c-6.097473 0 -11.835266 1.1810608 -17.213318 3.543213c-5.3600464 2.3621368 -10.054626 5.6306915 -14.083679 9.805634c-4.0110474 4.1749573 -7.176697 9.118973 -9.497009 14.832062c-2.3203125 5.7131042 -3.4804077 11.893127 -3.4804077 18.540085c0 6.701889 1.1600952 12.900223 3.4804077 18.595016c2.3203125 5.676468 5.485962 10.593002 9.497009 14.749649c4.0290527 4.138336 8.723633 7.379425 14.083679 9.723236c5.3780518 2.325531 11.115845 3.4882812 17.213318 3.4882812c2.8059692 0 5.5668945 -0.35705566 8.282898 -1.0711975c2.7340088 -0.71414185 5.396057 -1.6846313 7.986145 -2.9114685c2.590088 -1.2451782 5.0543213 -2.7008972 7.392578 -4.367218c2.3562622 -1.6846313 4.586609 -3.4882812 6.691101 -5.4109497l8.579651 12.112854l5.342102 0l0 -123.35333z" fill-rule="evenodd"></path><path fill="#434343" d="m840.63446 188.79832l0 56.197037c0 4.6144257 0.8633423 8.972473 2.590088 13.074188c1.7266846 4.0834045 4.082947 7.6357727 7.0687866 10.6571045c3.0037842 3.0213623 6.5021973 5.4109497 10.4953 7.1688232c3.993042 1.7578735 8.282898 2.6368103 12.869507 2.6368103c4.1549683 0 8.103027 -0.7232971 11.844299 -2.1698608c3.7592163 -1.4649048 7.1497803 -3.5981445 10.171509 -6.3997498c3.0757446 2.8016052 6.5022583 4.934845 10.27948 6.3997498c3.7772217 1.4465637 7.7163086 2.1698608 11.817322 2.1698608c4.586609 0 8.885437 -0.87893677 12.896484 -2.6368103c4.0290527 -1.7578735 7.536499 -4.147461 10.522278 -7.1688232c3.0037842 -3.0213318 5.3690796 -6.5737 7.095764 -10.6571045c1.7267456 -4.101715 2.590088 -8.459763 2.590088 -13.074188l0 -56.197037l-22.015808 0l0 56.197037c0 1.5381317 -0.29675293 2.9847107 -0.8903198 4.339752c-0.5935669 1.3367157 -1.3939819 2.5177765 -2.401245 3.543213c-0.9892578 1.0071106 -2.1583862 1.8036499 -3.5074463 2.3896027c-1.348999 0.5676575 -2.7789307 0.8514862 -4.289795 0.8514862c-1.5109253 0 -2.9318848 -0.28382874 -4.2628784 -0.8514862c-1.3130493 -0.58595276 -2.4732056 -1.3824921 -3.4804688 -2.3896027c-0.9892578 -1.0254364 -1.7807007 -2.2064972 -2.3742676 -3.543213c-0.59350586 -1.3550415 -0.8903198 -2.8016205 -0.8903198 -4.339752l0 -56.197037l-22.015808 0l0 56.197037c0 1.5381317 -0.28778076 2.9847107 -0.8633423 4.339752c-0.5576172 1.3367157 -1.34906 2.5177765 -2.3742676 3.543213c-1.0252686 1.0071106 -2.2124023 1.8036499 -3.5614014 2.3896027c-1.348999 0.5676575 -2.7789307 0.8514862 -4.289856 0.8514862c-1.5108643 0 -2.9318237 -0.28382874 -4.2628784 -0.8514862c-1.3129883 -0.58595276 -2.4731445 -1.3824921 -3.4804077 -2.3896027c-0.9892578 -1.0254364 -1.7717285 -2.2064972 -2.34729 -3.543213c-0.55755615 -1.3550415 -0.83636475 -2.8016205 -0.83636475 -4.339752l0 -56.197037z" fill-rule="evenodd"></path><path fill="#434343" d="m1006.56244 207.9976c3.0217896 0 5.8637085 0.67752075 8.525757 2.032547c2.6800537 1.3367157 5.0183105 3.122055 7.0148315 5.356018c1.996582 2.2156525 3.5704346 4.7700653 4.7215576 7.6632385c1.1690674 2.8748474 1.7536621 5.850418 1.7536621 8.926697c0 3.0762787 -0.5845947 6.0610046 -1.7536621 8.954178c-1.151123 2.8748474 -2.7249756 5.4292603 -4.7215576 7.6632233c-1.996521 2.2156525 -4.334778 4.000992 -7.0148315 5.356018c-2.6620483 1.3367157 -5.5039673 2.0050812 -8.525757 2.0050812c-3.0217896 0 -5.8726807 -0.52186584 -8.552673 -1.5656128c-2.6620483 -1.0437317 -4.982361 -2.5818634 -6.9608765 -4.6144104c-1.9605713 -2.032547 -3.5074463 -4.5411835 -4.640625 -7.525894c-1.1331787 -3.0030518 -1.6997681 -6.427231 -1.6997681 -10.272583c0 -3.8453522 0.56658936 -7.260376 1.6997681 -10.245102c1.1331787 -3.0030365 2.6800537 -5.5208282 4.640625 -7.5533752c1.9785156 -2.0325317 4.298828 -3.5706787 6.9608765 -4.6144104c2.6799927 -1.043747 5.530884 -1.5656128 8.552673 -1.5656128zm0 -22.742493c-6.097473 0 -11.835266 1.144455 -17.213318 3.4333496c-5.3600464 2.270584 -10.054626 5.4658813 -14.083679 9.585907c-4.0110474 4.1200104 -7.176697 9.054886 -9.497009 14.804596c-2.3202515 5.7313995 -3.4804077 12.030441 -3.4804077 18.89714c0 7.3610992 1.1601562 13.925659 3.4804077 19.69368c2.3203125 5.7680206 5.485962 10.6479645 9.497009 14.639786c4.0290527 3.9735413 8.723633 7.0040283 14.083679 9.091522c5.3780518 2.0874634 11.115845 3.131195 17.213318 3.131195c2.8059692 0 5.5669556 -0.35705566 8.282959 -1.0711975c2.7339478 -0.71414185 5.395996 -1.6846313 7.986084 -2.9114685c2.590149 -1.2451782 5.0542603 -2.7008972 7.392639 -4.367218c2.3562012 -1.6846313 4.586548 -3.4882812 6.69104 -5.4109497l8.579712 12.112854l5.342041 0l0 -88.08598l-5.342041 0l-8.579712 10.464844c-2.050537 -1.9776154 -4.2539062 -3.8178864 -6.6101074 -5.5208282c-2.338379 -1.7029419 -4.80249 -3.186142 -7.392639 -4.4496155c-2.590088 -1.2634735 -5.2611084 -2.2522736 -8.013062 -2.9664154c-2.7520142 -0.7141266 -5.530945 -1.0711975 -8.336914 -1.0711975z" fill-rule="evenodd"></path><path fill="#434343" d="m1066.5394 188.63353l0 48.781006c0 6.3173523 1.0072021 12.021286 3.0217285 17.111801c2.0324707 5.0722046 4.8114014 9.384491 8.336914 12.936859c3.543335 3.5340576 7.6623535 6.2624207 12.356812 8.185089c4.69458 1.9226685 9.712891 2.8840027 15.054932 2.8840027c2.5361328 0 5.0543213 -0.5218506 7.5544434 -1.5655823c2.5181885 -1.0437622 4.991333 -2.087494 7.4195557 -3.1312256l0 0c-0.8093262 2.0325317 -1.8615723 3.9094543 -3.1566162 5.630707c-1.295044 1.739563 -2.796997 3.2410583 -4.5057373 4.504547c-1.6906738 1.2634583 -3.5344238 2.2522583 -5.530884 2.9664001c-1.996582 0.71414185 -4.0739746 1.0711975 -6.232422 1.0711975l-12.3029785 -0.16479492l0 22.660095l11.331665 0.16479492c6.097534 0 11.817383 -1.1810608 17.159424 -3.543213c5.342041 -2.3621216 10.018555 -5.5757446 14.029663 -9.640839c4.0290527 -4.0650635 7.2037354 -8.8168335 9.524048 -14.255249c2.3201904 -5.4384155 3.5073242 -11.261383 3.5612793 -17.468872l0 -77.126724l-22.258545 0l0 48.781006c0 2.3621368 -0.4317627 4.660187 -1.295044 6.89415c-0.8634033 2.2156525 -2.050537 4.202423 -3.5614014 5.9602966c-1.5108643 1.7578735 -3.2825928 3.1769867 -5.3150635 4.2573547c-2.0145264 1.0620422 -4.1550293 1.5930786 -6.4213867 1.5930786c-2.3201904 0 -4.496704 -0.38453674 -6.529175 -1.1536102c-2.0145264 -0.7690735 -3.7772217 -1.931839 -5.288086 -3.4882812c-1.5108643 -1.5747681 -2.7160645 -3.5249176 -3.6153564 -5.8504333c-0.88134766 -2.3438263 -1.3220215 -5.0813446 -1.3220215 -8.212555l0 -48.781006z" fill-rule="evenodd"></path><path fill="#efefef" d="m460.58798 279.86804l0 0c0 -93.2796 -75.61807 -168.89764 -168.89764 -168.89764l0 0c-44.79445 0 -87.75423 17.794525 -119.42868 49.468964c-31.674438 31.674454 -49.468964 74.63423 -49.468964 119.42868l0 0c0 93.27957 75.61804 168.89764 168.89764 168.89764l0 0c93.27957 0 168.89764 -75.61807 168.89764 -168.89764z" fill-rule="evenodd"></path><path fill="#434343" d="m291.5611 104.32436l0 0c96.92743 0 175.53906 78.49918 175.66913 175.41782c0.13006592 96.91867 -78.2706 175.62851 -175.19766 175.88864l-0.07659912 -28.533081l0 0c81.183655 -0.21783447 146.85007 -66.14209 146.74112 -147.31726c-0.10891724 -81.175186 -65.95203 -146.92296 -147.13599 -146.92296z" fill-rule="evenodd"></path><path fill="#434343" d="m292.73987 104.29859l0 0c-63.655304 -0.420784 -122.55719 33.62908 -153.96007 89.00088c-31.40287 55.371796 -30.392128 123.39978 2.641922 177.81418c33.034042 54.41443 92.921524 86.69934 156.53625 84.3876l-1.0362549 -28.515564c-53.281143 1.9361877 -103.440506 -25.10437 -131.1085 -70.67969c-27.667984 -45.575348 -28.514542 -102.55284 -2.2127533 -148.93005c26.301788 -46.377197 75.63565 -74.89601 128.9508 -74.54358z" fill-rule="evenodd"></path><path fill="#434343" d="m307.0284 202.27473l0 0c0 -8.558243 -6.9378357 -15.496063 -15.496063 -15.496063l0 0l0 0c-4.109833 0 -8.0513 1.6326141 -10.957367 4.5386963c-2.9060974 2.906067 -4.5386963 6.8475494 -4.5386963 10.957367l0 94.83464c0 8.558258 6.937805 15.496063 15.496063 15.496063l0 0l0 0c8.558228 0 15.496063 -6.937805 15.496063 -15.496063z" fill-rule="evenodd"></path><path fill="#434343" d="m307.01212 84.52611l0 0c0 -8.542801 -6.925293 -15.468109 -15.468079 -15.468109l0 0l0 0c-4.102417 0 -8.036774 1.6296692 -10.937622 4.5305023c-2.9008179 2.9008331 -4.530487 6.835205 -4.530487 10.937607l0 59.726562c0 8.542801 6.925293 15.468109 15.468109 15.468109l0 0l0 0c8.542786 0 15.468079 -6.925308 15.468079 -15.468109z" fill-rule="evenodd"></path><path fill="#434343" d="m307.01212 415.7716l0 0c0 -8.542816 -6.925293 -15.468109 -15.468079 -15.468109l0 0l0 0c-4.102417 0 -8.036774 1.6296692 -10.937622 4.530487c-2.9008179 2.9008484 -4.530487 6.835205 -4.530487 10.937622l0 59.726562c0 8.542786 6.925293 15.468109 15.468109 15.468109l0 0l0 0c8.542786 0 15.468079 -6.9253235 15.468079 -15.468109z" fill-rule="evenodd"></path><path fill="#434343" d="m487.03006 295.46533l0 0c8.542786 0 15.468109 -6.925293 15.468109 -15.468109l0 0l0 0c0 -4.1023865 -1.6296692 -8.036774 -4.5305176 -10.937592c-2.9008179 -2.9008484 -6.835205 -4.5305176 -10.937592 -4.5305176l-59.726562 0c-8.542816 0 -15.468109 6.9253235 -15.468109 15.468109l0 0l0 0c0 8.542816 6.925293 15.468109 15.468109 15.468109z" fill-rule="evenodd"></path><path fill="#434343" d="m155.78456 295.46533l0 0c8.542801 0 15.468109 -6.925293 15.468109 -15.468109l0 0l0 0c0 -4.1023865 -1.6296692 -8.036774 -4.5305023 -10.937592c-2.9008331 -2.9008484 -6.835205 -4.5305176 -10.937607 -4.5305176l-59.726562 0c-8.542801 0 -15.468109 6.9253235 -15.468109 15.468109l0 0l0 0c0 8.542816 6.925308 15.468109 15.468109 15.468109z" fill-rule="evenodd"></path><path fill="#434343" d="m370.15463 239.77914l0 0c6.0447083 -6.044693 6.0447083 -15.8450775 0 -21.88977l0 0l0 0c-2.9027405 -2.9027557 -6.839752 -4.5335236 -10.944855 -4.5335236c-4.105133 0 -8.042145 1.6307678 -10.944885 4.5335236l-66.99213 66.99213c-6.0447083 6.0446777 -6.0447083 15.845062 0 21.88977l0 0l0 0c6.0446777 6.0446777 15.845062 6.0446777 21.88974 0z" fill-rule="evenodd"></path><path fill="#ffffff" d="m615.26605 353.57794c1.203186 0 2.079834 0.31622314 2.6298828 0.94873047c0.5499878 0.6324768 0.8250122 1.2546387 0.8250122 1.8664856c0 0.61187744 -0.08251953 1.278717 -0.24749756 2.0005798l-8.5598755 0c0.3781128 -1.6087036 1.0622559 -2.811798 2.0523071 -3.6092834c0.99694824 -0.8043518 2.0969849 -1.2065125 3.300171 -1.2065125zm-50.91028 -22.68689l-8.0442505 45.621246l11.406311 0l2.9702148 -16.72641l5.012146 0l4.7543335 16.72641l12.0354 0l-6.4663086 -22.614685l14.510559 -23.006561l-12.0354 0l-12.0354 19.015747l-4.0633545 0l3.3620605 -19.015747zm52.52948 14.199921c-4.98468 0 -8.989624 1.0862122 -12.014832 3.258667c-3.0182495 2.1724548 -4.8849487 5.286743 -5.5999756 9.342865l-1.3303833 7.85791c-0.17193604 0.96936035 -0.25787354 1.876831 -0.25787354 2.7224426c0 6.084198 4.3934326 9.126312 13.180176 9.126312c9.632446 0 15.146545 -3.949585 16.542236 -11.848755l-10.519348 -0.12374878c-0.1237793 0.8456116 -0.54663086 1.5846558 -1.2685547 2.2171326c-0.71502686 0.6324768 -1.5813599 0.94873047 -2.598877 0.94873047c-2.7432861 0 -4.114929 -1.1618347 -4.114929 -3.4855347c0 -0.41937256 0.041259766 -0.88342285 0.12371826 -1.3921509l0.25787354 -1.45401l19.326782 0l0.7528076 -4.506439c0.171875 -1.0931091 0.25787354 -2.1071472 0.25787354 -3.0421143c0 -6.414215 -4.2456055 -9.621307 -12.736694 -9.621307z" fill-rule="evenodd"></path><path fill="#ffffff" d="m650.24286 353.57794c1.203186 0 2.079834 0.31622314 2.6298828 0.94873047c0.5500488 0.6324768 0.8250122 1.2546387 0.8250122 1.8664856c0 0.61187744 -0.082458496 1.278717 -0.24749756 2.0005798l-8.5598755 0c0.3781128 -1.6087036 1.0622559 -2.811798 2.0523071 -3.6092834c0.99694824 -0.8043518 2.0969849 -1.2065125 3.300171 -1.2065125zm35.647156 0.69091797c1.3475342 0 2.2963867 0.3609314 2.8464355 1.0827637c0.5499878 0.71499634 0.8250122 1.3921509 0.8250122 2.0315247c0 0.6324768 -0.041259766 1.1584167 -0.1237793 1.5777588l-0.8250122 4.753937c-0.25439453 1.5193481 -0.89038086 2.660553 -1.907959 3.423645c-1.0106812 0.7562561 -2.1072998 1.1343689 -3.289856 1.1343689c-1.897644 0 -3.1420288 -0.59124756 -3.7333374 -1.7737122l1.897583 -10.642212c0.6738281 -1.0587158 2.1107788 -1.5880737 4.310913 -1.5880737zm-34.027954 -9.177887c-4.98468 0 -8.989624 1.0862122 -12.014832 3.258667c-3.0182495 2.1724548 -4.8849487 5.286743 -5.5999756 9.342865l-1.3303833 7.85791c-0.171875 0.96936035 -0.25787354 1.876831 -0.25787354 2.7224426c0 6.084198 4.3934326 9.126312 13.180176 9.126312c9.632446 0 15.146545 -3.949585 16.542236 -11.848755l-10.519348 -0.12374878c-0.1237793 0.8456116 -0.54663086 1.5846558 -1.2685547 2.2171326c-0.71502686 0.6324768 -1.5813599 0.94873047 -2.598877 0.94873047c-2.7432861 0 -4.114929 -1.1618347 -4.114929 -3.4855347c0 -0.41937256 0.041259766 -0.88342285 0.12371826 -1.3921509l0.25787354 -1.45401l19.326782 0l0.7528076 -4.506439c0.171875 -1.0931091 0.25787354 -2.1071472 0.25787354 -3.0421143c0 -6.414215 -4.2456055 -9.621307 -12.736694 -9.621307zm38.142883 0.12374878c-3.3758545 0 -6.057251 0.8456116 -8.0442505 2.5368042l0.31970215 -1.7118225l-9.7664795 0l-8.487732 48.085876l10.777222 0l3.4136353 -19.572601c1.3956909 1.8974609 3.8674316 2.8461914 7.415161 2.8461914c3.5476685 0 6.5040894 -1.0449829 8.869263 -3.1349182c2.3651123 -2.0899353 3.9086304 -5.1423645 4.630554 -9.157257l1.2685547 -7.4144897c0.2062378 -1.0999756 0.3093872 -2.134613 0.3093872 -3.1039734c0 -2.406189 -0.5913086 -4.389557 -1.7738647 -5.9501343c-1.6432495 -2.2824402 -4.6203003 -3.4236755 -8.931152 -3.4236755z" fill-rule="evenodd"></path><path fill="#ffffff" d="m736.4501 335.45938l-11.591919 4.815796l-4.310913 24.512146c-0.171875 1.017456 -0.2578125 1.969635 -0.2578125 2.8564758c0 2.7018127 0.80444336 4.8570557 2.413269 6.4657593c2.1519775 2.1930542 5.679077 3.2896118 10.581238 3.2896118c10.09314 0 16.026611 -5.1320496 17.800476 -15.396149l-10.509094 0c-0.34375 1.9043274 -0.9694214 3.4270935 -1.8769531 4.5682983c-0.9075928 1.1343689 -2.0351562 1.7015381 -3.3826904 1.7015381c-2.5370483 0 -3.805542 -1.3302917 -3.805542 -3.9908447c0 -0.6324768 0.0859375 -1.3508911 0.2578125 -2.155243l1.2581787 -7.1566772l17.491028 0l1.5882568 -8.930389l-17.491028 0l1.8356934 -10.580322z" fill-rule="evenodd"></path><path fill="#ffffff" d="m777.00183 345.15286c-3.4170532 0 -6.3322754 1.708374 -8.745544 5.1251526l0.7631836 -4.238312l-10.014038 0l-5.383423 30.472595l10.777161 0l3.5477295 -20.026306c1.0519409 -1.4299622 2.2963867 -2.1449585 3.7333374 -2.1449585c0.8457031 0 1.5091553 0.24404907 1.9904785 0.73217773c0.48809814 0.4812317 0.73217773 1.1033936 0.73217773 1.8665161c0 1.4299622 -0.52593994 2.6330261 -1.5778809 3.609253l9.570557 0l0.690979 -0.8868408c0.4675293 -0.6324768 0.94195557 -1.625885 1.4232178 -2.9802246c0.48815918 -1.3543396 0.73223877 -2.749939 0.73223877 -4.1867676c0 -2.2755737 -0.68756104 -4.066437 -2.062622 -5.37265c-1.3682251 -1.3131104 -3.4274292 -1.969635 -6.1775513 -1.969635z" fill-rule="evenodd"></path><path fill="#ffffff" d="m804.569 354.26886c1.732605 0 2.8292236 0.5293579 3.289856 1.5880737l-1.897583 10.642212c-1.1000977 1.1824646 -2.3995361 1.7737122 -3.8983765 1.7737122c-1.4988403 0 -2.5645142 -0.3265686 -3.1970825 -0.9796753c-0.6325073 -0.6531067 -0.9487915 -1.3165283 -0.9487915 -1.9902649c0 -0.680603 0.041259766 -1.2099609 0.1237793 -1.5880737l0.8250122 -4.753937c0.5500488 -3.1280212 2.4511108 -4.692047 5.703186 -4.692047zm-2.062622 -9.054138c-3.9052734 0 -7.074829 1.1309204 -9.508728 3.3927307c-2.427002 2.2549438 -3.977417 5.2832947 -4.651184 9.0850525l-1.3304443 7.4144897c-0.21313477 1.2237244 -0.31970215 2.3442993 -0.31970215 3.361786c0 5.953583 3.46521 8.930389 10.39563 8.930389c4.0977783 0 7.2020264 -1.6912231 9.312744 -5.0736084c0.50878906 3.3823853 3.0870972 5.0736084 7.7348633 5.0736084c2.5301514 0 4.809326 -0.8249817 6.8375854 -2.474945l0.31970215 -7.1566772l0 0c-0.7631836 0.426239 -1.7050781 0.63934326 -2.8258057 0.63934326c-1.1138306 0 -1.6707153 -0.5499573 -1.6707153 -1.6499329c0 -0.254364 0.020629883 -0.508728 0.06188965 -0.76312256l3.5477295 -19.954132l-9.632446 0l-0.31976318 1.8974609c-1.388794 -1.8149719 -4.0393066 -2.7224426 -7.951355 -2.7224426z" fill-rule="evenodd"></path><path fill="#ffffff" d="m843.4771 345.09097c-4.647766 0.041259766 -8.484253 1.1377869 -11.50946 3.2896118c-3.0183105 2.151825 -4.864319 5.2557983 -5.538147 9.31192l-1.3303833 7.85791c-0.171875 0.96936035 -0.2578125 1.876831 -0.2578125 2.7224426c0 6.084198 4.3933716 9.126312 13.180176 9.126312c9.632446 0 15.146545 -3.949585 16.542236 -11.848755l-10.519409 -0.12374878c-0.12371826 0.71499634 -0.55688477 1.368103 -1.2994385 1.9593201c-0.7425537 0.59124756 -1.5778809 0.88687134 -2.5061035 0.88687134c-2.784546 0 -4.176819 -1.117157 -4.176819 -3.351471c0 -0.38500977 0.041259766 -0.7871704 0.1237793 -1.206543l0.82507324 -4.630188c0.2956543 -1.6430664 0.9281616 -2.8667908 1.897583 -3.6711426c0.97631836 -0.8043518 2.1382446 -1.206543 3.4858398 -1.206543c2.2826538 0 3.4239502 1.1412354 3.4239502 3.4236755c0 1.2649536 -0.52941895 2.3649292 -1.5881958 3.2998962l10.777161 0l0.5053711 -0.63934326c0.33691406 -0.3781128 0.66345215 -1.106842 0.9797363 -2.1861877c0.31628418 -1.0793457 0.47442627 -2.2927551 0.47442627 -3.6402283c0 -6.2492065 -4.496521 -9.37381 -13.489563 -9.37381z" fill-rule="evenodd"></path><path fill="#ffffff" d="m879.4616 353.76355c0.8457031 0 1.4885254 0.2234497 1.9285889 0.6702881c0.4468994 0.44000244 0.6703491 1.020935 0.6703491 1.7427673c0 3.0799255 -3.124878 4.7470703 -9.374634 5.0014343l0.690979 -4.1764526c1.7738647 -2.1586914 3.802063 -3.238037 6.084717 -3.238037zm-11.787903 -25.337128l-8.487671 48.085876l10.777222 0l1.7119751 -9.631592c1.7738647 -0.08251953 3.104248 -0.1890564 3.99115 -0.31970215l0.18566895 0.88687134c0.76312256 3.59552 1.8288574 6.152954 3.1970215 7.6722717c1.3751221 1.5193481 3.4996338 2.2790222 6.373535 2.2790222c2.8739014 0 5.3009644 -0.8249817 7.281067 -2.474945l0.31970215 -7.1566772l0 0c-0.7631836 0.426239 -1.6294556 0.63934326 -2.598938 0.63934326c-1.897583 0 -3.0801392 -0.8043518 -3.5476685 -2.4130554l-0.70129395 -2.3408508c4.7783813 -2.578064 7.1676025 -6.149536 7.1676025 -10.7144165c0 -2.3649292 -0.68756104 -4.252075 -2.062622 -5.6614075c-1.375061 -1.4161987 -3.4961548 -2.124298 -6.36322 -2.124298c-4.2695923 0 -7.6488647 1.371521 -10.137756 4.114563l3.6714478 -20.841003z" fill-rule="evenodd"></path><path fill="#ffffff" d="m930.5038 353.95947c1.375061 0 2.3341675 0.40219116 2.8773193 1.206543c0.5500488 0.79748535 0.82507324 1.5262146 0.82507324 2.1861877c0 0.6531067 -0.041259766 1.1893616 -0.1237793 1.6087036l-0.8250122 4.753937c-0.25439453 1.3543396 -0.8457031 2.5058594 -1.7738647 3.4545898c-0.9281616 0.94873047 -2.079834 1.4230957 -3.454895 1.4230957c-1.3682251 0 -2.3273315 -0.3781128 -2.8773804 -1.1343384c-0.5500488 -0.76312256 -0.8250122 -1.4712219 -0.8250122 -2.1243286c0 -0.65997314 0.041259766 -1.199646 0.12371826 -1.6190186l0.82507324 -4.753937c0.25439453 -1.5193176 0.8456421 -2.732727 1.7738647 -3.6401978c0.9281616 -0.9074707 2.079773 -1.3612366 3.454895 -1.3612366zm1.8666382 -8.80661c-10.264954 0 -16.136597 4.1798706 -17.614807 12.539642l-1.3303833 7.4144897c-0.21313477 1.1824646 -0.31970215 2.2583618 -0.31970215 3.2277222c0 2.7911682 0.8457031 4.884552 2.5370483 6.2801514c2.2826538 1.8562012 5.871582 2.7843018 10.766907 2.7843018c4.9021606 0 8.821106 -0.9281006 11.756897 -2.7843018c2.935852 -1.8630676 4.805969 -5.032379 5.6103516 -9.507874l1.3303833 -7.4144897c0.21313477 -1.0999756 0.31970215 -2.1140137 0.31970215 -3.0420837c0 -2.7843018 -0.90753174 -4.960205 -2.7226562 -6.527649c-2.3238525 -1.97995 -5.7684326 -2.9699097 -10.33374 -2.9699097z" fill-rule="evenodd"></path><path fill="#ffffff" d="m962.0229 359.52808c0.9762573 1.9868164 1.8116455 4.733307 2.5060425 8.239471c0.694458 3.5061646 1.041626 6.9813843 1.041626 10.425659c0 3.444275 -0.4640503 6.22171 -1.392273 8.332275c-0.9281616 2.1105652 -2.0454102 3.1658325 -3.3517456 3.1658325c-1.9869995 0 -2.9804688 -1.5193176 -2.9804688 -4.5579834c0 -1.0999756 0.12719727 -2.3890076 0.3815918 -3.867096l3.795227 -21.73816zm-6.4560547 -24.068695l-8.116394 45.868744c-0.4194336 2.406189 -0.62908936 4.8226624 -0.62908936 7.249481c0 2.4336853 0.5465698 4.492676 1.6397705 6.1770325c1.7738647 2.6674194 5.352478 4.001129 10.735962 4.001129c5.39032 0 9.659912 -1.9765015 12.808899 -5.929535c3.1489258 -3.9461365 4.7233887 -9.002563 4.7233887 -15.169281c0 -5.0323486 -1.0037842 -9.470032 -3.0114136 -13.313049c-2.0076294 -3.8430176 -4.510315 -6.967621 -7.5079956 -9.37381l12.416992 0l1.5882568 -8.930389l-15.779053 0l1.897583 -10.580322z" fill-rule="evenodd"></path><path fill="#ffffff" d="m1015.5097 345.09097c-4.647766 0.041259766 -8.484253 1.1377869 -11.50946 3.2896118c-3.0183105 2.151825 -4.864319 5.2557983 -5.538147 9.31192l-1.3303833 7.85791c-0.171875 0.96936035 -0.2578125 1.876831 -0.2578125 2.7224426c0 6.084198 4.3933716 9.126312 13.180176 9.126312c9.632446 0 15.146484 -3.949585 16.542236 -11.848755l-10.519409 -0.12374878c-0.12371826 0.71499634 -0.55688477 1.368103 -1.2994385 1.9593201c-0.7425537 0.59124756 -1.5778809 0.88687134 -2.5061035 0.88687134c-2.784546 0 -4.176819 -1.117157 -4.176819 -3.351471c0 -0.38500977 0.041259766 -0.7871704 0.1237793 -1.206543l0.82507324 -4.630188c0.29559326 -1.6430664 0.9281616 -2.8667908 1.897583 -3.6711426c0.97631836 -0.8043518 2.1382446 -1.206543 3.4858398 -1.206543c2.2826538 0 3.4239502 1.1412354 3.4239502 3.4236755c0 1.2649536 -0.52941895 2.3649292 -1.5881958 3.2998962l10.777222 0l0.5053711 -0.63934326c0.336792 -0.3781128 0.66345215 -1.106842 0.9797363 -2.1861877c0.3161621 -1.0793457 0.47436523 -2.2927551 0.47436523 -3.6402283c0 -6.2492065 -4.496582 -9.37381 -13.489563 -9.37381z" fill-rule="evenodd"></path><path fill="#ffffff" d="m1039.8405 328.42642l-6.90979 39.021454c-0.17199707 1.017456 -0.25793457 2.2033691 -0.25793457 3.5577087c0 1.3474731 0.3609619 2.5917969 1.0828857 3.7330322c1.1413574 1.7736816 3.633667 2.660553 7.477051 2.660553c2.5369873 0 4.816284 -0.8249817 6.8376465 -2.474945l0.31970215 -7.1566772l0 0c-0.75634766 0.426239 -1.6948242 0.63934326 -2.8155518 0.63934326c-1.1207275 0 -1.6810303 -0.5499573 -1.6810303 -1.6499329c0 -0.254364 0.020629883 -0.508728 0.06188965 -0.76312256l6.6519775 -37.567413z" fill-rule="evenodd"></path><path fill="#ffffff" d="m1069.8096 354.26886c1.732666 0 2.8292236 0.5293579 3.289917 1.5880737l-1.897583 10.642212c-1.1000977 1.1824646 -2.3995361 1.7737122 -3.8983154 1.7737122c-1.4989014 0 -2.5645752 -0.3265686 -3.1971436 -0.9796753c-0.63256836 -0.6531067 -0.94873047 -1.3165283 -0.94873047 -1.9902649c0 -0.680603 0.041259766 -1.2099609 0.12365723 -1.5880737l0.82507324 -4.753937c0.5500488 -3.1280212 2.4510498 -4.692047 5.703125 -4.692047zm-2.062622 -9.054138c-3.9051514 0 -7.074707 1.1309204 -9.508667 3.3927307c-2.427002 2.2549438 -3.977417 5.2832947 -4.651245 9.0850525l-1.3303223 7.4144897c-0.21313477 1.2237244 -0.31970215 2.3442993 -0.31970215 3.361786c0 5.953583 3.46521 8.930389 10.39563 8.930389c4.0976562 0 7.2019043 -1.6912231 9.312744 -5.0736084c0.50878906 3.3823853 3.0870361 5.0736084 7.7348633 5.0736084c2.5301514 0 4.809326 -0.8249817 6.8375244 -2.474945l0.31970215 -7.1566772l0 0c-0.7631836 0.426239 -1.7050781 0.63934326 -2.8258057 0.63934326c-1.1137695 0 -1.6706543 -0.5499573 -1.6706543 -1.6499329c0 -0.254364 0.020629883 -0.508728 0.06188965 -0.76312256l3.5476074 -19.954132l-9.632446 0l-0.31970215 1.8974609c-1.388794 -1.8149719 -4.0393066 -2.7224426 -7.951416 -2.7224426z" fill-rule="evenodd"></path><path fill="#ffffff" d="m1109.1613 345.09097c-5.6241455 0 -9.924683 1.034668 -12.901733 3.1039734c-2.9770508 2.069336 -4.465576 5.0255127 -4.465576 8.86853c0 1.9868164 0.5913086 3.5920715 1.7739258 4.815796c1.1824951 1.2237244 2.6297607 2.0280762 4.341797 2.4130554c1.7119141 0.3781128 3.4239502 0.6531067 5.1358643 0.8249817c1.7120361 0.16500854 3.1593018 0.36437988 4.341919 0.598114c1.1824951 0.22686768 1.7738037 0.6359253 1.7738037 1.2271423c0 0.8868408 -0.34033203 1.4884033 -1.0209961 1.804657c-0.6738281 0.31622314 -1.7703857 0.47433472 -3.289917 0.47433472c-1.5194092 0 -2.6710205 -0.2199707 -3.454834 -0.65997314c-0.7838135 -0.4468689 -1.1311035 -0.96591187 -1.041626 -1.5571289l0 0l-10.581299 0.1340332c-0.13061523 0.71499634 -0.19592285 1.4093628 -0.19592285 2.0830688c0 2.3718262 0.8457031 4.231476 2.5369873 5.5789185c2.1519775 1.7324524 5.909424 2.5986938 11.272217 2.5986938c5.369751 0 9.457153 -0.9074707 12.262329 -2.7224426c2.8120117 -1.8149414 4.2180176 -4.4754944 4.2180176 -7.981659c0 -1.9868164 -0.5911865 -3.5714417 -1.7738037 -4.753937c-1.1826172 -1.1824646 -2.6195068 -1.973053 -4.310913 -2.3717957c-1.6912842 -0.40560913 -3.3826904 -0.71154785 -5.0739746 -0.91778564c-1.6845703 -0.21313477 -3.118042 -0.48809814 -4.300659 -0.8249817c-1.1824951 -0.34375 -1.7738037 -0.8937378 -1.7738037 -1.6499634c0 -1.9455566 1.5847168 -2.918335 4.7543945 -2.918335c1.0518799 0 1.9147949 0.18215942 2.588501 0.5465393c0.68066406 0.3574829 1.0209961 0.83184814 1.0209961 1.4230957c0 0.59121704 -0.16845703 1.0105896 -0.505249 1.2580872l10.385254 0c0.8457031 -1.1824646 1.2685547 -2.4680786 1.2685547 -3.856781c0 -5.025482 -4.328125 -7.5382385 -12.984253 -7.5382385z" fill-rule="evenodd"></path><path fill="#ffffff" d="m1143.948 345.09097c-5.6241455 0 -9.924683 1.034668 -12.901733 3.1039734c-2.9770508 2.069336 -4.465576 5.0255127 -4.465576 8.86853c0 1.9868164 0.5913086 3.5920715 1.7738037 4.815796c1.1826172 1.2237244 2.6298828 2.0280762 4.341797 2.4130554c1.7120361 0.3781128 3.4239502 0.6531067 5.1359863 0.8249817c1.7120361 0.16500854 3.1593018 0.36437988 4.341797 0.598114c1.1826172 0.22686768 1.7739258 0.6359253 1.7739258 1.2271423c0 0.8868408 -0.34033203 1.4884033 -1.0209961 1.804657c-0.6738281 0.31622314 -1.7705078 0.47433472 -3.289917 0.47433472c-1.5195312 0 -2.6711426 -0.2199707 -3.454956 -0.65997314c-0.7836914 -0.4468689 -1.1309814 -0.96591187 -1.041626 -1.5571289l0 0l-10.581177 0.1340332c-0.13061523 0.71499634 -0.19592285 1.4093628 -0.19592285 2.0830688c0 2.3718262 0.84558105 4.231476 2.5369873 5.5789185c2.1519775 1.7324524 5.909424 2.5986938 11.272217 2.5986938c5.369629 0 9.457153 -0.9074707 12.262329 -2.7224426c2.8120117 -1.8149414 4.2180176 -4.4754944 4.2180176 -7.981659c0 -1.9868164 -0.5913086 -3.5714417 -1.7738037 -4.753937c-1.1826172 -1.1824646 -2.619629 -1.973053 -4.310913 -2.3717957c-1.6914062 -0.40560913 -3.3826904 -0.71154785 -5.0740967 -0.91778564c-1.6844482 -0.21313477 -3.11792 -0.48809814 -4.300537 -0.8249817c-1.1826172 -0.34375 -1.7738037 -0.8937378 -1.7738037 -1.6499634c0 -1.9455566 1.5847168 -2.918335 4.7542725 -2.918335c1.052002 0 1.9147949 0.18215942 2.588623 0.5465393c0.68066406 0.3574829 1.0209961 0.83184814 1.0209961 1.4230957c0 0.59121704 -0.16845703 1.0105896 -0.5053711 1.2580872l10.385376 0c0.84558105 -1.1824646 1.2684326 -2.4680786 1.2684326 -3.856781c0 -5.025482 -4.328003 -7.5382385 -12.984131 -7.5382385z" fill-rule="evenodd"></path><path fill="#ffffff" d="m1191.9722 335.45938l-11.591919 4.815796l-4.310913 24.512146c-0.171875 1.017456 -0.2578125 1.969635 -0.2578125 2.8564758c0 2.7018127 0.80444336 4.8570557 2.413208 6.4657593c2.1519775 2.1930542 5.679077 3.2896118 10.581299 3.2896118c10.09314 0 16.026611 -5.1320496 17.800415 -15.396149l-10.509033 0c-0.34375 1.9043274 -0.9694824 3.4270935 -1.8769531 4.5682983c-0.9075928 1.1343689 -2.0351562 1.7015381 -3.3828125 1.7015381c-2.5369873 0 -3.805542 -1.3302917 -3.805542 -3.9908447c0 -0.6324768 0.08605957 -1.3508911 0.25793457 -2.155243l1.2581787 -7.1566772l17.490967 0l1.5882568 -8.930389l-17.491089 0l1.8358154 -10.580322z" fill-rule="evenodd"></path><path fill="#ffffff" d="m1223.0255 327.92114c-2.5369873 0 -4.4071045 0.62216187 -5.6103516 1.8665161c-1.2032471 1.2443237 -1.8048096 3.2174072 -1.8048096 5.9191895c0 3.0455627 1.7532959 4.568329 5.2596436 4.568329c2.5783691 0 4.469116 -0.6118469 5.672241 -1.8355713c1.2032471 -1.2305908 1.8048096 -3.176178 1.8048096 -5.836731c0 -3.1211548 -1.7738037 -4.681732 -5.321533 -4.681732zm-8.683716 18.11856l-3.805542 21.408173c-0.16491699 1.017456 -0.24743652 2.1930542 -0.24743652 3.526764c0 1.3268433 0.37817383 2.581482 1.1343994 3.763977c1.1413574 1.7736816 3.633667 2.660553 7.477051 2.660553c2.5369873 0 4.7990723 -0.8249817 6.7860107 -2.474945l0.30944824 -7.1566772l0 0c-0.75634766 0.426239 -1.6192627 0.63934326 -2.588623 0.63934326c-1.2719727 0 -1.907959 -0.57058716 -1.907959 -1.7118225c0 -0.21310425 0.020629883 -0.44683838 0.06188965 -0.7012329l3.5477295 -19.954132zm38.963745 -0.8868408c-3.8846436 0 -7.092041 1.5605774 -9.622192 4.681732l0.69104004 -3.7948914l-10.014038 0l-5.383423 30.472595l10.777222 0l3.5476074 -20.088196c1.3063965 -1.3887024 2.8670654 -2.0830688 4.682251 -2.0830688c2.2825928 0 3.4239502 1.0140381 3.4239502 3.0421143c0 0.7562256 -0.06188965 1.5158997 -0.18566895 2.2789917l-2.9804688 16.850159l10.766846 0l3.4239502 -19.57257c1.2719727 -1.7324524 3.0148926 -2.5986938 5.22876 -2.5986938c2.2208252 0 3.3311768 1.0140381 3.3311768 3.0421143c0 0.7562256 -0.06530762 1.5158997 -0.19592285 2.2789917l-1.3304443 7.785736c-0.16503906 0.9762268 -0.2475586 1.8871155 -0.2475586 2.732727c0 4.812378 2.8704834 7.218567 8.61145 7.218567c2.5371094 0 4.7990723 -0.8249817 6.7860107 -2.474945l0.30944824 -7.1566772l0 0c-0.7562256 0.426239 -1.6225586 0.63934326 -2.598877 0.63934326c-1.2651367 0 -1.897583 -0.57058716 -1.897583 -1.7118225c0 -0.21310425 0.020629883 -0.44683838 0.061767578 -0.7012329l1.5882568 -9.435669c0.21313477 -1.2718506 0.31970215 -2.6880493 0.31970215 -4.2486267c0 -1.5605774 -0.42285156 -2.9974365 -1.2684326 -4.3105164c-1.2719727 -1.8974609 -4.0324707 -2.846161 -8.281494 -2.846161c-4.2421875 0 -7.628296 1.8149414 -10.158447 5.4448547c-0.7631836 -3.6299133 -3.8914795 -5.4448547 -9.384888 -5.4448547z" fill-rule="evenodd"></path><path fill="#ffffff" d="m1305.8677 353.57794c1.2032471 0 2.079834 0.31622314 2.6297607 0.94873047c0.5500488 0.6324768 0.82507324 1.2546387 0.82507324 1.8664856c0 0.61187744 -0.08251953 1.278717 -0.24743652 2.0005798l-8.559937 0c0.37817383 -1.6087036 1.0622559 -2.811798 2.0523682 -3.6092834c0.99694824 -0.8043518 2.0969238 -1.2065125 3.300171 -1.2065125zm1.6191406 -8.486969c-4.984619 0 -8.989624 1.0862122 -12.0147705 3.258667c-3.0183105 2.1724548 -4.88501 5.286743 -5.5999756 9.342865l-1.3304443 7.85791c-0.171875 0.96936035 -0.2578125 1.876831 -0.2578125 2.7224426c0 6.084198 4.3933105 9.126312 13.180176 9.126312c9.632446 0 15.146484 -3.949585 16.542236 -11.848755l-10.519409 -0.12374878c-0.1237793 0.8456116 -0.54663086 1.5846558 -1.2685547 2.2171326c-0.7149658 0.6324768 -1.5812988 0.94873047 -2.598877 0.94873047c-2.7432861 0 -4.114868 -1.1618347 -4.114868 -3.4855347c0 -0.41937256 0.041137695 -0.88342285 0.12365723 -1.3921509l0.2578125 -1.45401l19.326782 0l0.7529297 -4.506439c0.171875 -1.0931091 0.2578125 -2.1071472 0.2578125 -3.0421143c0 -6.414215 -4.2456055 -9.621307 -12.736694 -9.621307z" fill-rule="evenodd"></path></g></svg>

