<?xml version="1.0" standalone="yes"?>

<svg version="1.1" viewBox="0.0 0.0 480.0 480.0" fill="none" stroke="none" stroke-linecap="square" stroke-miterlimit="10" xmlns="http://www.w3.org/2000/svg" xmlns:xlink="http://www.w3.org/1999/xlink"><clipPath id="p.0"><path d="m0 0l480.0 0l0 480.0l-480.0 0l0 -480.0z" clip-rule="nonzero"></path></clipPath><g clip-path="url(#p.0)"><path fill="#000000" fill-opacity="0.0" d="m0 0l480.0 0l0 480.0l-480.0 0z" fill-rule="evenodd"></path><path fill="#5892dc" d="m28.236221 240.0l0 0c0 -116.9539 94.809875 -211.76378 211.76378 -211.76378l0 0c56.16324 0 110.026184 22.31076 149.7396 62.024178c39.71341 39.7134 62.0242 93.57635 62.0242 149.7396l0 0c0 116.95392 -94.809875 211.7638 -211.7638 211.7638l0 0c-116.9539 0 -211.76378 -94.809875 -211.76378 -211.7638zm52.758827 0l0 0c0 87.81601 71.18894 159.00494 159.00494 159.00494c87.81601 0 159.00494 -71.188934 159.00494 -159.00494l0 0c0 -87.81601 -71.188934 -159.00494 -159.00494 -159.00494l0 0c-87.81601 0 -159.00494 71.18894 -159.00494 159.00494z" fill-rule="evenodd"></path><path fill="#5892dc" d="m216.55132 152.85826l0 0c0 -11.419678 9.257477 -20.677155 20.67717 -20.677155l0 0l0 0c5.483917 0 10.74324 2.178482 14.620956 6.056198c3.8777313 3.877716 6.056198 9.137039 6.056198 14.620956l0 84.03151c0 11.419678 -9.257477 20.677155 -20.677155 20.677155l0 0l0 0c-11.419693 0 -20.67717 -9.257477 -20.67717 -20.677155z" fill-rule="evenodd"></path><path fill="#5892dc" d="m321.81436 265.1186l0 0c10.221893 5.9012756 13.721008 18.969666 7.8154907 29.189117l0 0l0 0c-2.8359375 4.9075317 -7.505707 8.488342 -12.982025 9.954651c-5.4763184 1.4662781 -11.310577 0.69799805 -16.2193 -2.1358948l-71.55011 -41.306824c-10.221909 -5.9012604 -13.721024 -18.969666 -7.8154907 -29.189102l0 0l0 0c5.905533 -10.219452 18.9794 -13.720032 29.201324 -7.8187866z" fill-rule="evenodd"></path><path fill="#5892dc" d="m216.55118 20.677166l0 0c0 -11.419683 9.257492 -20.677166 20.67717 -20.677166l0 0l0 0c5.483917 0 10.74324 2.1784809 14.620956 6.0562015c3.8777313 3.8777204 6.0562134 9.137039 6.0562134 14.620964l0 58.330708c0 11.419685 -9.257492 20.677162 -20.67717 20.677162l0 0l0 0c-11.419678 0 -20.67717 -9.257477 -20.67717 -20.677162z" fill-rule="evenodd"></path><path fill="#5892dc" d="m219.32283 400.99213l0 0c0 -11.419678 9.257492 -20.677155 20.67717 -20.677155l0 0l0 0c5.4839325 0 10.74324 2.1784668 14.620956 6.056183c3.8777313 3.877716 6.056198 9.137054 6.056198 14.620972l0 58.33072c0 11.419678 -9.257477 20.677155 -20.677155 20.677155l0 0l0 0c-11.419678 0 -20.67717 -9.257477 -20.67717 -20.677155z" fill-rule="evenodd"></path><path fill="#5892dc" d="m79.00787 219.32283l0 0c11.419685 0 20.677162 9.257492 20.677162 20.67717l0 0l0 0c0 5.4839325 -2.1784744 10.74324 -6.056198 14.620956c-3.8777237 3.8777313 -9.137039 6.056198 -14.620964 6.056198l-58.330708 0c-11.419683 0 -20.677166 -9.257477 -20.677166 -20.677155l0 0l0 0c0 -11.419678 9.257483 -20.67717 20.677166 -20.67717z" fill-rule="evenodd"></path><path fill="#5892dc" d="m459.32285 219.32283l0 0c11.419678 0 20.677155 9.257492 20.677155 20.67717l0 0l0 0c0 5.4839325 -2.1784668 10.74324 -6.0562134 14.620956c-3.877716 3.8777313 -9.137024 6.056198 -14.620941 6.056198l-58.33072 0c-11.419678 0 -20.677155 -9.257477 -20.677155 -20.677155l0 0l0 0c0 -11.419678 9.257477 -20.67717 20.677155 -20.67717z" fill-rule="evenodd"></path></g></svg>

