<svg version="1.1" viewBox="0.0 0.0 128.0 128.0" fill="none" stroke="none" stroke-linecap="square" stroke-miterlimit="10" xmlns:xlink="http://www.w3.org/1999/xlink" xmlns="http://www.w3.org/2000/svg"><clipPath id="p.0"><path d="m0 0l128.0 0l0 128.0l-128.0 0l0 -128.0z" clip-rule="nonzero"/></clipPath><g clip-path="url(#p.0)"><path fill="#000000" fill-opacity="0.0" d="m0 0l128.0 0l0 128.0l-128.0 0z" fill-rule="evenodd"/><path fill="#2196f3" d="m0 64.0l0 0c0 -35.346222 28.653776 -64.0 64.0 -64.0l0 0l0 0c16.973854 0 33.252502 6.742838 45.254837 18.745167c12.002327 12.002327 18.745163 28.28098 18.745163 45.254833l0 0l0 0c0 35.346222 -28.653778 64.0 -64.0 64.0l0 0l0 0c-35.346222 0 -64.0 -28.653778 -64.0 -64.0z" fill-rule="evenodd"/><path fill="#1a78c4" d="m88.547516 42.228207l32.457596 51.097202l-54.558 34.649994l-32.4576 -51.0972z" fill-rule="evenodd"/><path fill="#1a78c4" d="m120.92456 93.2916l0 0c-10.565201 20.534866 -31.372643 33.786484 -54.448845 34.67681z" fill-rule="evenodd"/><path fill="#efefef" d="m95.75504 63.992985l0 0c0 -17.53395 -14.214081 -31.748032 -31.748032 -31.748032l0 0c-8.420101 0 -16.495338 3.3448753 -22.44925 9.298786c-5.953911 5.953911 -9.298782 14.029144 -9.298782 22.449245l0 0c0 17.533955 14.214077 31.748035 31.748032 31.748035l0 0c17.53395 0 31.748032 -14.214081 31.748032 -31.748035z" fill-rule="evenodd"/><path fill="#434343" d="m63.995102 30.996325l0 0c18.212448 0 32.9834 14.751146 33.007843 32.963577c0.02444458 18.21243 -14.706871 33.00317 -32.91925 33.05205l-0.014389038 -5.3617783c15.25396 -0.04094696 27.592316 -12.429077 27.571846 -27.683079c-0.020469666 -15.254005 -12.392029 -27.608974 -27.64605 -27.608974z" fill-rule="evenodd"/><path fill="#434343" d="m64.22035 31.003437l0 0c-11.958744 -0.08317757 -23.026707 6.3098717 -28.929874 16.7104c-5.9031696 10.400528 -5.7176933 23.180847 0.48480606 33.405685c6.2024994 10.224846 17.45132 16.294014 29.40261 15.863838l-0.19282532 -5.357216c-10.009926 0.36029816 -19.431488 -4.7229996 -24.626453 -13.286919c-5.1949654 -8.563919 -5.350315 -19.2682 -0.40605545 -27.979267c4.9442596 -8.711067 14.21434 -14.065628 24.230507 -13.99596z" fill-rule="evenodd"/><path fill="#434343" d="m66.905334 49.400875l0 0c0 -1.6090202 -1.3043671 -2.9133873 -2.9133835 -2.9133873l0 0l0 0c-0.7726784 0 -1.51371 0.3069458 -2.0600739 0.85331345c-0.54636765 0.54636383 -0.85331345 1.2873955 -0.85331345 2.0600739l0 17.82677c0 1.6090164 1.3043671 2.9133835 2.9133873 2.9133835l0 0l0 0c1.6090164 0 2.9133835 -1.3043671 2.9133835 -2.9133835z" fill-rule="evenodd"/><path fill="#434343" d="m66.91055 27.2797l0 0c0 -1.6051598 -1.301239 -2.9063988 -2.9064026 -2.9063988l0 0l0 0c-0.77082443 0 -1.5100784 0.30620766 -2.0551338 0.85126495c-0.5450592 0.5450554 -0.85126495 1.2843094 -0.85126495 2.0551338l0 11.222403c0 1.6051598 1.301239 2.9063988 2.9063988 2.9063988l0 0l0 0c1.6051636 0 2.9064026 -1.301239 2.9064026 -2.9063988z" fill-rule="evenodd"/><path fill="#434343" d="m66.91055 89.5195l0 0c0 -1.6051636 -1.301239 -2.9064026 -2.9064026 -2.9064026l0 0l0 0c-0.77082443 0 -1.5100784 0.30621338 -2.0551338 0.85126495c-0.5450592 0.5450592 -0.85126495 1.2843094 -0.85126495 2.0551376l0 11.222397c0 1.6051636 1.301239 2.9064026 2.9063988 2.9064026l0 0l0 0c1.6051636 0 2.9064026 -1.301239 2.9064026 -2.9064026z" fill-rule="evenodd"/><path fill="#434343" d="m100.73525 66.9144l0 0c1.605156 0 2.906395 -1.301239 2.906395 -2.906395l0 0l0 0c0 -0.77082825 -0.30620575 -1.5100822 -0.85126495 -2.0551376c-0.5450516 -0.5450554 -1.2843094 -0.85126495 -2.05513 -0.85126495l-11.2224045 0c-1.605156 0 -2.906395 1.301239 -2.906395 2.9064026l0 0l0 0c0 1.605156 1.301239 2.906395 2.906395 2.906395z" fill-rule="evenodd"/><path fill="#434343" d="m38.49545 66.9144l0 0c1.6051598 0 2.9064026 -1.301239 2.9064026 -2.906395l0 0l0 0c0 -0.77082825 -0.30620956 -1.5100822 -0.85126495 -2.0551376c-0.5450554 -0.5450554 -1.2843132 -0.85126495 -2.0551376 -0.85126495l-11.222399 0c-1.6051598 0 -2.9064007 1.301239 -2.9064007 2.9064026l0 0l0 0c0 1.605156 1.3012409 2.906395 2.9064007 2.906395z" fill-rule="evenodd"/><path fill="#434343" d="m78.77406 56.43596l0 0c1.130661 -1.1306648 1.130661 -2.963829 0 -4.09449l0 0l0 0c-0.5429611 -0.5429611 -1.2793808 -0.84799576 -2.0472488 -0.84799576c-0.7678604 0 -1.5042801 0.30503464 -2.0472412 0.84799576l-12.629921 12.629921c-1.130661 1.130661 -1.130661 2.963829 0 4.09449l0 0l0 0c1.130661 1.130661 2.963829 1.130661 4.09449 0z" fill-rule="evenodd"/></g></svg>