<svg xmlns="http://www.w3.org/2000/svg" xmlns:xlink="http://www.w3.org/1999/xlink" fill="none" stroke="none" stroke-linecap="square" stroke-miterlimit="10" version="1.1" viewBox="0 0 720 720"><clipPath id="p.0"><path d="m0 0l720.0 0l0 720.0l-720.0 0l0 -720.0z" clip-rule="nonzero"/></clipPath><g clip-path="url(#p.0)"><path fill="#000" fill-opacity="0" fill-rule="evenodd" d="m0 0l720.0 0l0 720.0l-720.0 0z"/><path fill="#2196f3" fill-rule="evenodd" d="m0 359.98627l0 0c0 -198.81383 161.17044 -359.98425 359.98425 -359.98425l0 0c95.473755 0 187.03717 37.926804 254.5473 105.43694c67.51013 67.51015 105.43695 159.07353 105.43695 254.54732l0 0c0 198.81378 -161.17047 359.98425 -359.98425 359.98425l0 0c-198.81381 0 -359.98425 -161.17047 -359.98425 -359.98425z"/><g filter="url(#shadowFilter-p.1)"><use transform="matrix(1.0 0.0 0.0 1.0 2.8284271320333003 2.8284271320333003)" xlink:href="#p.1"/></g><defs><filter id="shadowFilter-p.1" filterUnits="userSpaceOnUse"><feGaussianBlur in="SourceAlpha" result="blur" stdDeviation="4.5"/><feComponentTransfer color-interpolation-filters="sRGB" in="blur"><feFuncR intercept="0" slope="0" type="linear"/><feFuncG intercept="0" slope="0" type="linear"/><feFuncB intercept="0" slope="0" type="linear"/><feFuncA intercept="0" slope=".22" type="linear"/></feComponentTransfer></filter></defs><g id="p.1"><path fill="#efefef" fill-rule="evenodd" d="m555.6559 360.0029l0 0c0 -108.05647 -87.59708 -195.65355 -195.65356 -195.65355l0 0c-51.890533 0 -101.65579 20.613434 -138.34795 57.305588c-36.692154 36.69217 -57.305588 86.4574 -57.305588 138.34796l0 0c0 108.05646 87.59708 195.65353 195.65353 195.65353l0 0c108.05649 0 195.65356 -87.59708 195.65356 -195.65353z"/></g><path fill="#434343" fill-rule="evenodd" d="m164.32697 360.00107l0 0c0 -108.05646 87.59708 -195.65353 195.65353 -195.65353l0 0c51.890564 0 101.65579 20.61345 138.34796 57.305603c36.69217 36.69217 57.305573 86.4574 57.305573 138.34793l0 0c0 108.05649 -87.597046 195.65353 -195.65353 195.65353l0 0c-108.05646 0 -195.65353 -87.597046 -195.65353 -195.65353zm31.96196 0l0 0c0 90.40439 73.28722 163.69162 163.69157 163.69162c90.40439 0 163.69162 -73.28723 163.69162 -163.69162l0 0c0 -90.40436 -73.28723 -163.69156 -163.69162 -163.69156l0 0c-90.40436 0 -163.69157 73.2872 -163.69157 163.69156z"/><path fill="#434343" fill-rule="evenodd" d="m215.58147 377.0118l0 0c9.384491 0 16.992111 -7.6076355 16.992111 -16.992126l0 0l0 0c0 -4.506592 -1.7902222 -8.828613 -4.9768677 -12.015259c-3.1866455 -3.186615 -7.5086517 -4.9768677 -12.015244 -4.9768677l-65.70079 0c-9.384491 0 -16.992126 7.6076355 -16.992126 16.992126l0 0l0 0c0 9.384491 7.6076355 16.992126 16.992126 16.992126z"/><path fill="#434343" fill-rule="evenodd" d="m570.145 377.0118l0 0c9.38446 0 16.992126 -7.6076355 16.992126 -16.992126l0 0l0 0c0 -4.506592 -1.7902222 -8.828613 -4.9768677 -12.015259c-3.1866455 -3.186615 -7.508667 -4.9768677 -12.015259 -4.9768677l-65.700806 0c-9.384491 0 -16.992126 7.6076355 -16.992126 16.992126l0 0l0 0c0 9.384491 7.6076355 16.992126 16.992126 16.992126z"/><path fill="#434343" fill-rule="evenodd" d="m342.9934 215.58347l0 0c0 9.384491 7.6076355 16.992126 16.992126 16.992126l0 0l0 0c4.506592 0 8.828583 -1.7902374 12.015228 -4.976883c3.1866455 -3.1866455 4.976898 -7.5086517 4.976898 -12.015244l0 -65.70079c0 -9.384491 -7.6076355 -16.992126 -16.992126 -16.992126l0 0l0 0c-9.384491 0 -16.992126 7.6076355 -16.992126 16.992126z"/><path fill="#434343" fill-rule="evenodd" d="m342.9934 570.14703l0 0c0 9.38446 7.6076355 16.992126 16.992126 16.992126l0 0l0 0c4.506592 0 8.828583 -1.7902222 12.015228 -4.9768677c3.1866455 -3.1866455 4.976898 -7.508667 4.976898 -12.015259l0 -65.700806c0 -9.384491 -7.6076355 -16.992126 -16.992126 -16.992126l0 0l0 0c-9.384491 0 -16.992126 7.6076355 -16.992126 16.992126z"/><path fill="#434343" fill-rule="evenodd" d="m342.97287 360.01968l0 0c0 9.384491 7.6076355 16.992126 16.992126 16.992126l0 0l0 0c4.506592 0 8.828583 -1.7902222 12.015228 -4.9768677c3.1866455 -3.1866455 4.976898 -7.508667 4.976898 -12.015259l0 -86.834656c0 -9.384491 -7.6076355 -16.992126 -16.992126 -16.992126l0 0l0 0c-9.384491 0 -16.992126 7.6076355 -16.992126 16.992126z"/><path fill="#434343" fill-rule="evenodd" d="m379.07376 355.0403l0 0c-6.6535034 -6.6535034 -17.440979 -6.6535034 -24.094482 0l0 0l0 0c-3.1951294 3.1951294 -4.9901123 7.528656 -4.9901123 12.047241c0 4.5186157 1.7949829 8.852142 4.9901123 12.047241l46.4252 46.4252c6.6535034 6.653534 17.440979 6.653534 24.094482 0l0 0l0 0c6.6535034 -6.6535034 6.6535034 -17.440979 0 -24.094482z"/><path fill="#000" fill-opacity=".112" fill-rule="evenodd" d="m0.031496063 359.98627l0 0c0 -198.81383 161.17044 -359.98425 359.98425 -359.98425c198.81384 0 359.98425 161.17044 359.98425 359.98425z"/></g></svg>